<?xml version="1.0" encoding="UTF-8" standalone="no"?>
<!DOCTYPE svg PUBLIC "-//W3C//DTD SVG 1.1//EN" "http://www.w3.org/Graphics/SVG/1.1/DTD/svg11.dtd">
<svg xmlns="http://www.w3.org/2000/svg" version="1.1" viewBox="0.00 0.00 1000.00 1000.00">
<g stroke-width="2.00" fill="none" stroke-linecap="butt">
<path stroke="#8f8e8c" vector-effect="non-scaling-stroke" d="
  M 1000.00 749.13
  Q 999.97 747.07 997.75 749.93
  Q 997.42 750.35 997.84 750.69
  Q 998.64 751.31 1000.00 750.63"
/>
<path stroke="#8f8e8c" vector-effect="non-scaling-stroke" d="
  M 443.21 619.22
  L 443.21 615.11
  Q 443.21 614.56 442.88 614.13
  Q 440.74 611.28 437.06 610.43
  Q 406.99 603.44 380.75 587.76
  Q 371.23 582.07 364.16 577.16
  Q 351.15 568.15 338.12 555.41
  Q 307.90 525.85 293.09 487.96
  Q 289.97 479.98 287.03 468.86
  Q 274.56 421.70 286.15 374.19
  Q 287.56 368.44 290.11 360.44
  Q 293.15 350.93 294.93 346.94
  Q 322.17 285.88 379.85 251.34
  Q 396.65 241.28 416.39 234.35
  Q 464.30 217.55 513.11 224.04
  Q 523.59 225.43 532.91 227.65
  Q 585.94 240.27 627.17 276.19
  Q 638.69 286.24 651.18 301.38
  Q 669.62 323.76 679.03 347.86
  C 687.31 369.04 692.37 389.75 692.96 412.02
  Q 693.65 438.38 687.85 464.24
  C 685.77 473.49 682.53 483.50 679.30 491.55
  Q 672.40 508.80 661.77 524.28
  Q 650.35 540.92 636.32 554.85
  Q 631.38 559.74 625.28 564.71
  Q 619.68 569.26 613.58 573.81
  Q 586.25 594.19 553.70 604.92
  Q 545.57 607.60 534.17 610.63
  Q 531.54 611.32 530.32 614.02
  C 529.56 615.70 529.97 617.55 529.79 619.19
  Q 529.74 619.70 529.24 619.83
  C 526.69 620.45 523.46 620.82 521.40 622.09
  Q 517.52 624.50 515.98 628.57
  Q 514.49 632.51 516.48 636.31
  Q 519.22 641.54 525.21 643.06
  C 526.09 643.29 527.20 643.16 528.52 643.20
  Q 529.20 643.22 530.72 644.50
  Q 533.48 646.81 538.33 645.74
  Q 573.89 637.93 606.04 621.01
  Q 641.84 602.16 669.49 572.42
  Q 672.17 569.53 673.86 567.44
  Q 676.47 564.24 678.07 562.32
  Q 696.76 539.89 709.75 511.78
  Q 723.10 482.85 728.56 446.43
  Q 729.94 437.24 730.15 426.51
  Q 730.42 412.83 730.01 405.00
  Q 728.92 384.24 722.89 362.88
  Q 713.04 327.97 694.23 299.56
  Q 682.83 282.34 673.58 272.22
  Q 658.59 255.83 650.90 249.11
  Q 595.72 200.94 523.74 188.55
  Q 512.03 186.54 503.55 186.14
  Q 489.65 185.48 473.01 186.01
  Q 460.53 186.41 445.98 189.16
  Q 425.19 193.09 407.08 199.33
  Q 386.98 206.26 372.73 214.08
  Q 363.49 219.15 355.45 224.13
  Q 329.31 240.30 307.63 263.65
  Q 301.23 270.54 295.08 278.07
  C 266.20 313.43 248.10 356.56 244.32 402.06
  Q 243.95 406.53 243.91 412.96
  C 243.86 421.58 243.68 431.73 244.58 440.17
  Q 251.92 508.85 296.53 562.87
  Q 309.36 578.41 322.45 589.75
  Q 356.82 619.55 399.14 635.78
  Q 415.12 641.92 434.83 646.10
  Q 439.91 647.18 443.30 643.83
  Q 443.67 643.47 444.17 643.37
  C 445.86 643.02 447.75 643.38 449.43 642.90
  C 456.10 640.98 460.34 633.70 456.91 627.12
  Q 453.92 621.38 447.24 620.38
  Q 446.39 620.25 443.82 619.91
  Q 443.21 619.83 443.21 619.22"
/>
<path stroke="#8b6b15" vector-effect="non-scaling-stroke" d="
  M 486.54 301.32
  Q 492.32 301.27 495.98 300.24
  Q 508.23 296.82 514.31 285.16
  C 520.04 274.17 519.34 259.90 510.71 250.27
  C 503.78 242.55 496.78 238.98 486.25 239.07
  Q 480.47 239.12 476.81 240.14
  Q 464.56 243.57 458.48 255.23
  C 452.75 266.22 453.45 280.49 462.08 290.11
  C 469.01 297.84 476.01 301.41 486.54 301.32"
/>
<path stroke="#8f8e8c" vector-effect="non-scaling-stroke" d="
  M 427.2651 264.8144
  A 9.84 9.84 0.0 0 0 413.3528 264.4987
  L 412.1238 265.6732
  A 9.84 9.84 0.0 0 0 411.8080 279.5855
  L 412.9549 280.7856
  A 9.84 9.84 0.0 0 0 426.8672 281.1013
  L 428.0962 279.9268
  A 9.84 9.84 0.0 0 0 428.4120 266.0145
  L 427.2651 264.8144"
/>
<path stroke="#8f8e8c" vector-effect="non-scaling-stroke" d="
  M 563.68 272.81
  A 10.82 10.82 0.0 0 0 552.86 261.99
  A 10.82 10.82 0.0 0 0 542.04 272.81
  A 10.82 10.82 0.0 0 0 552.86 283.63
  A 10.82 10.82 0.0 0 0 563.68 272.81"
/>
<path stroke="#8f8e8c" vector-effect="non-scaling-stroke" d="
  M 394.05 304.87
  A 10.99 10.99 0.0 0 0 383.06 293.88
  A 10.99 10.99 0.0 0 0 372.07 304.87
  A 10.99 10.99 0.0 0 0 383.06 315.86
  A 10.99 10.99 0.0 0 0 394.05 304.87"
/>
<path stroke="#8f8e8c" vector-effect="non-scaling-stroke" d="
  M 601.3977 303.9708
  A 11.12 10.95 -5.0 0 0 589.3656 294.0317
  A 11.12 10.95 -5.0 0 0 579.2423 305.9092
  A 11.12 10.95 -5.0 0 0 591.2744 315.8483
  A 11.12 10.95 -5.0 0 0 601.3977 303.9708"
/>
<path stroke="#8f8e8c" vector-effect="non-scaling-stroke" d="
  M 438.22 318.71
  A 10.95 10.95 0.0 0 0 427.27 307.76
  A 10.95 10.95 0.0 0 0 416.32 318.71
  A 10.95 10.95 0.0 0 0 427.27 329.66
  A 10.95 10.95 0.0 0 0 438.22 318.71"
/>
<path stroke="#8f8e8c" vector-effect="non-scaling-stroke" d="
  M 556.67 318.67
  A 10.95 10.95 0.0 0 0 545.72 307.72
  A 10.95 10.95 0.0 0 0 534.77 318.67
  A 10.95 10.95 0.0 0 0 545.72 329.62
  A 10.95 10.95 0.0 0 0 556.67 318.67"
/>
<path stroke="#8f8e8c" vector-effect="non-scaling-stroke" d="
  M 449.42 377.31
  C 448.56 377.32 447.64 377.01 447.04 376.34
  Q 443.11 372.02 439.08 368.54
  Q 422.96 354.59 402.98 345.25
  Q 395.09 341.56 384.43 337.75
  C 370.64 332.81 356.82 329.34 342.78 328.33
  Q 340.24 328.14 332.83 327.65
  Q 326.61 327.23 323.65 327.82
  C 315.72 329.40 308.84 335.16 307.85 343.70
  C 307.51 346.67 307.04 349.89 307.03 353.03
  Q 306.98 379.39 307.08 471.10
  Q 307.08 474.10 307.38 477.21
  Q 307.79 481.55 308.38 483.21
  Q 312.04 493.34 322.72 496.08
  Q 324.09 496.43 328.42 496.35
  Q 332.74 496.27 337.65 497.86
  Q 373.38 509.43 401.93 533.22
  Q 414.06 543.33 420.96 551.10
  Q 426.28 557.09 432.43 564.50
  Q 437.36 570.43 444.97 582.03
  Q 447.30 585.57 467.44 619.43
  Q 479.47 639.64 485.15 649.20
  A 2.11 2.07 -23.0 0 0 487.52 650.13
  Q 488.07 649.97 488.76 648.77
  C 500.53 628.35 512.65 608.42 524.62 588.45
  Q 538.77 564.86 556.91 546.44
  Q 587.55 515.31 630.98 499.41
  Q 638.95 496.49 646.95 496.20
  Q 652.41 496.00 654.58 495.17
  Q 663.00 491.96 665.98 483.00
  Q 667.08 479.67 667.08 473.50
  Q 667.03 364.61 667.09 347.75
  C 667.13 336.39 658.36 328.09 647.25 327.52
  Q 644.50 327.38 629.94 328.67
  Q 620.16 329.52 612.78 331.21
  Q 600.89 333.92 589.19 337.71
  C 565.14 345.50 543.27 358.62 525.95 377.00
  Q 523.11 380.01 523.13 375.88
  Q 523.16 366.75 523.18 351.17
  Q 523.19 342.35 521.88 337.93
  Q 517.49 323.02 503.53 315.26
  Q 495.41 310.76 486.29 310.95
  Q 479.94 311.09 472.93 313.84
  C 462.17 318.06 454.52 326.94 451.27 338.20
  Q 449.76 343.42 449.88 357.45
  Q 449.95 365.83 449.91 376.82
  A 0.49 0.49 0.0 0 1 449.42 377.31"
/>
<path stroke="#8f8e8c" vector-effect="non-scaling-stroke" d="
  M 380.5575 657.3267
  A 0.47 0.47 0.0 0 0 380.0867 656.8575
  L 365.7667 656.8825
  A 0.47 0.47 0.0 0 0 365.2975 657.3533
  L 365.3225 671.6733
  A 0.47 0.47 0.0 0 0 365.7933 672.1425
  L 380.1133 672.1175
  A 0.47 0.47 0.0 0 0 380.5825 671.6467
  L 380.5575 657.3267"
/>
<path stroke="#8f8e8c" vector-effect="non-scaling-stroke" d="
  M 400.90 657.37
  A 0.47 0.47 0.0 0 0 400.43 656.90
  L 386.17 656.90
  A 0.47 0.47 0.0 0 0 385.70 657.37
  L 385.70 671.63
  A 0.47 0.47 0.0 0 0 386.17 672.10
  L 400.43 672.10
  A 0.47 0.47 0.0 0 0 400.90 671.63
  L 400.90 657.37"
/>
<path stroke="#8b6b15" vector-effect="non-scaling-stroke" d="
  M 591.3123 657.4333
  A 0.51 0.51 0.0 0 0 590.8032 656.9224
  L 576.6433 656.8977
  A 0.51 0.51 0.0 0 0 576.1324 657.4068
  L 576.1077 671.5667
  A 0.51 0.51 0.0 0 0 576.6168 672.0776
  L 590.7767 672.1023
  A 0.51 0.51 0.0 0 0 591.2876 671.5932
  L 591.3123 657.4333"
/>
<path stroke="#8f8e8c" vector-effect="non-scaling-stroke" d="
  M 642.03 730.00
  A 0.35 0.35 0.0 0 0 642.38 729.65
  L 642.38 673.35
  A 0.35 0.35 0.0 0 1 642.73 673.00
  L 646.19 673.00
  A 0.35 0.35 0.0 0 0 646.54 672.65
  L 646.54 658.34
  A 0.35 0.35 0.0 0 0 646.19 657.99
  L 620.76 657.99
  A 0.35 0.35 0.0 0 0 620.41 658.34
  L 620.41 729.65
  A 0.35 0.35 0.0 0 0 620.76 730.00
  L 642.03 730.00"
/>
<path stroke="#8f8e8c" vector-effect="non-scaling-stroke" d="
  M 556.69 714.99
  L 411.55 714.99
  A 0.57 0.57 0.0 0 1 410.98 714.42
  Q 411.05 708.59 410.95 703.15
  Q 410.83 696.53 408.95 692.18
  C 403.80 680.27 391.49 677.21 379.28 678.11
  C 368.57 678.90 360.20 683.91 356.94 694.41
  C 355.20 700.01 354.74 706.64 355.69 711.89
  Q 356.57 716.75 359.86 720.66
  Q 366.93 729.06 377.74 729.82
  Q 383.30 730.20 388.96 729.97
  A 0.41 0.41 0.0 0 1 389.38 730.44
  Q 388.86 733.72 385.80 735.01
  C 384.58 735.52 382.37 735.98 381.02 735.99
  Q 365.71 736.02 356.57 735.99
  Q 355.84 735.98 355.01 735.77
  C 353.75 735.43 352.30 735.26 351.27 734.67
  Q 348.45 733.04 348.43 729.24
  Q 348.35 716.68 348.40 705.60
  Q 348.41 704.99 347.80 704.99
  L 321.95 704.99
  Q 321.41 704.99 321.41 705.53
  L 321.41 719.46
  Q 321.41 719.99 321.95 719.99
  L 326.54 719.99
  Q 327.06 719.99 327.08 720.52
  Q 327.11 721.44 327.07 728.22
  Q 327.03 734.03 329.35 739.63
  C 331.69 745.26 336.31 748.91 341.99 750.54
  Q 347.25 752.04 350.55 752.04
  Q 382.97 752.02 387.07 751.96
  C 397.05 751.80 406.33 747.68 409.50 737.51
  Q 410.61 733.94 410.80 730.48
  Q 410.83 730.00 411.31 730.00
  L 611.24 730.00
  A 0.34 0.34 0.0 0 0 611.58 729.66
  Q 611.59 719.86 611.66 710.00
  Q 611.74 698.12 609.93 693.31
  Q 607.47 686.73 601.54 682.67
  C 594.11 677.59 583.32 677.02 574.71 678.90
  Q 561.39 681.81 557.48 694.44
  Q 554.45 704.22 557.06 714.52
  Q 557.18 714.99 556.69 714.99"
/>
<path stroke="#8f8e8c" vector-effect="non-scaling-stroke" d="
  M 334.5631 771.5040
  A 0.49 0.49 0.0 0 0 334.0740 771.0131
  L 330.4940 771.0069
  A 0.49 0.49 0.0 0 0 330.0031 771.4960
  L 329.9969 775.0760
  A 0.49 0.49 0.0 0 0 330.4860 775.5669
  L 334.0660 775.5731
  A 0.49 0.49 0.0 0 0 334.5569 775.0840
  L 334.5631 771.5040"
/>
<path stroke="#8f8e8c" vector-effect="non-scaling-stroke" d="
  M 340.2163 771.4780
  A 0.50 0.50 0.0 0 0 339.7180 770.9763
  L 336.1180 770.9637
  A 0.50 0.50 0.0 0 0 335.6163 771.4620
  L 335.6037 775.0620
  A 0.50 0.50 0.0 0 0 336.1020 775.5637
  L 339.7020 775.5763
  A 0.50 0.50 0.0 0 0 340.2037 775.0780
  L 340.2163 771.4780"
/>
<path stroke="#8f8e8c" vector-effect="non-scaling-stroke" d="
  M 324.36 781.07
  C 324.36 784.76 323.43 788.35 326.64 790.68
  A 1.56 1.52 62.5 0 0 327.55 790.98
  Q 337.62 791.03 342.04 790.99
  C 343.44 790.98 344.48 790.33 345.18 789.08
  Q 345.45 788.59 345.85 788.99
  Q 347.64 790.76 349.50 790.98
  Q 350.94 791.15 357.10 790.90
  Q 358.14 790.86 358.77 790.32
  Q 359.13 790.02 359.96 788.90
  Q 360.25 788.50 360.60 788.85
  Q 362.62 790.92 363.79 790.96
  Q 370.00 791.14 371.78 790.97
  Q 373.41 790.81 374.63 788.63
  A 0.16 0.16 0.0 0 1 374.90 788.62
  C 375.88 790.13 377.51 791.01 379.37 791.01
  Q 384.20 791.01 388.16 790.99
  Q 388.70 790.98 388.70 790.44
  Q 388.70 783.12 388.70 779.14
  Q 388.69 777.31 389.35 775.50
  Q 389.99 773.76 389.87 771.65
  Q 389.84 771.00 389.18 771.00
  L 383.31 771.00
  Q 382.63 771.00 382.63 771.67
  L 382.63 785.28
  Q 382.63 786.45 381.47 786.45
  L 376.24 786.45
  Q 374.99 786.45 374.99 785.20
  L 374.99 781.79
  Q 374.99 781.24 375.35 780.84
  Q 376.57 779.51 376.20 776.44
  Q 376.15 775.99 375.69 775.99
  L 369.50 775.99
  Q 368.99 775.99 368.99 776.50
  L 368.99 785.07
  Q 368.99 786.42 367.64 786.42
  L 361.61 786.42
  Q 360.38 786.42 360.45 785.20
  L 360.71 781.11
  Q 360.73 780.79 361.01 780.65
  L 361.26 780.51
  Q 361.59 780.34 361.61 779.96
  L 361.80 776.98
  Q 361.86 775.97 360.85 775.97
  L 355.26 775.97
  Q 354.41 775.97 354.41 776.82
  L 354.41 785.14
  Q 354.41 786.43 353.11 786.43
  L 347.13 786.43
  Q 345.79 786.43 345.79 785.10
  L 345.79 781.03
  Q 345.79 780.39 346.40 780.56
  Q 346.57 780.61 346.74 780.63
  Q 347.27 780.69 347.30 780.16
  L 347.50 776.93
  Q 347.56 775.97 346.60 775.97
  L 340.52 775.97
  Q 339.60 775.97 339.60 776.88
  L 339.60 785.98
  A 0.42 0.42 0.0 0 1 339.18 786.40
  L 331.09 786.40
  A 0.54 0.53 0.0 0 1 330.55 785.87
  L 330.55 776.96
  Q 330.55 775.97 329.56 775.97
  L 324.13 775.97
  Q 323.18 775.97 323.18 776.92
  L 323.18 780.23
  Q 323.18 780.52 323.43 780.67
  Q 323.64 780.79 323.84 780.71
  A 0.38 0.38 0.0 0 1 324.36 781.07"
/>
<path stroke="#8f8e8c" vector-effect="non-scaling-stroke" d="
  M 399.82 774.98
  Q 400.35 773.63 400.35 772.42
  Q 400.36 770.97 398.90 770.97
  L 393.76 770.97
  Q 392.61 770.97 392.61 772.12
  L 392.61 790.54
  Q 392.61 790.99 393.06 790.99
  L 398.47 790.99
  Q 399.02 790.99 398.99 790.44
  Q 398.71 784.12 399.11 777.35
  Q 399.15 776.70 399.82 774.98"
/>
<path stroke="#8f8e8c" vector-effect="non-scaling-stroke" d="
  M 450.78 775.71
  L 448.59 775.71
  Q 448.08 775.71 447.60 775.90
  C 444.35 777.20 442.20 778.48 441.88 782.44
  Q 441.69 784.71 441.85 785.41
  Q 442.10 786.45 441.03 786.45
  L 437.69 786.45
  Q 436.90 786.45 436.90 785.66
  L 436.90 776.81
  Q 436.90 775.99 436.08 775.99
  L 423.72 775.99
  A 4.09 4.09 0.0 0 0 419.63 780.08
  L 419.63 792.07
  A 0.94 0.93 -90.0 0 1 418.70 793.01
  L 415.47 793.01
  Q 414.70 793.01 414.70 792.24
  L 414.70 781.97
  Q 414.70 781.39 414.12 781.39
  L 407.71 781.39
  Q 407.18 781.39 407.18 781.92
  L 407.18 785.38
  Q 407.18 785.85 407.63 785.99
  L 407.92 786.08
  Q 408.46 786.25 408.46 786.81
  L 408.46 797.02
  Q 408.46 797.57 409.02 797.57
  L 421.59 797.57
  A 4.22 4.21 0.0 0 0 425.81 793.36
  L 425.81 781.28
  A 0.69 0.69 0.0 0 1 426.50 780.59
  L 430.32 780.59
  Q 430.78 780.59 430.78 781.05
  L 430.78 790.52
  Q 430.78 791.00 431.26 791.00
  L 457.02 791.00
  Q 457.56 791.00 457.58 790.45
  Q 457.66 787.58 457.55 783.02
  Q 457.42 777.60 452.21 776.17
  A 0.49 0.49 0.0 0 1 451.85 775.70
  L 451.85 771.53
  Q 451.85 771.00 451.31 771.00
  L 448.17 771.00
  Q 447.39 771.00 447.39 771.78
  L 447.39 774.78
  Q 447.39 775.76 448.33 775.50
  Q 449.51 775.19 450.80 775.31
  A 0.20 0.20 0.0 0 1 450.78 775.71"
/>
<path stroke="#8f8e8c" vector-effect="non-scaling-stroke" d="
  M 482.7882 771.6148
  A 0.63 0.63 0.0 0 0 482.1538 770.9892
  L 479.0339 771.0109
  A 0.63 0.63 0.0 0 0 478.4083 771.6453
  L 478.4318 775.0052
  A 0.63 0.63 0.0 0 0 479.0662 775.6308
  L 482.1861 775.6091
  A 0.63 0.63 0.0 0 0 482.8117 774.9747
  L 482.7882 771.6148"
/>
<path stroke="#8f8e8c" vector-effect="non-scaling-stroke" d="
  M 487.23 775.55
  L 487.85 775.70
  Q 488.57 775.87 488.57 775.12
  L 488.57 771.52
  Q 488.57 771.00 488.05 771.00
  L 484.74 771.00
  Q 484.24 771.00 484.24 771.50
  L 484.24 775.23
  A 0.73 0.72 11.6 0 1 483.23 775.89
  Q 481.66 775.22 480.77 775.93
  Q 480.37 776.24 480.37 776.77
  L 480.37 786.01
  A 0.40 0.40 0.0 0 1 479.97 786.41
  L 474.11 786.41
  Q 473.50 786.41 473.58 785.81
  L 474.82 776.81
  Q 474.93 776.00 474.11 776.00
  L 468.28 776.00
  Q 467.57 776.00 467.58 776.70
  Q 467.66 785.17 467.55 791.01
  Q 467.52 793.03 464.13 792.35
  A 0.59 0.59 0.0 0 0 463.43 792.93
  L 463.43 795.78
  Q 463.43 796.40 464.03 796.56
  C 468.46 797.77 473.01 797.26 473.72 791.56
  Q 473.78 791.06 474.30 791.05
  Q 474.37 791.05 483.38 790.94
  Q 484.72 790.92 485.97 788.89
  Q 486.25 788.41 486.59 788.85
  Q 488.28 791.09 491.75 791.05
  Q 496.23 791.01 497.99 790.87
  Q 499.60 790.73 500.54 788.63
  A 0.20 0.20 0.0 0 1 500.88 788.60
  Q 502.47 790.84 505.07 790.95
  Q 508.46 791.08 511.85 790.97
  Q 512.97 790.94 513.70 790.41
  Q 514.60 789.75 515.17 788.94
  Q 515.54 788.42 515.97 788.89
  C 516.46 789.44 516.89 790.07 517.52 790.37
  Q 521.68 792.36 523.97 788.91
  Q 524.35 788.33 524.75 788.90
  C 525.78 790.37 526.84 790.94 528.76 790.97
  Q 535.84 791.09 544.74 790.95
  Q 545.24 790.94 545.24 790.44
  L 545.24 776.22
  Q 545.24 775.79 545.58 775.53
  Q 545.76 775.40 545.96 775.40
  Q 546.59 775.40 546.59 774.76
  L 546.59 771.92
  Q 546.59 770.98 545.65 770.98
  L 539.96 770.98
  Q 539.18 770.98 539.18 771.75
  L 539.18 786.24
  Q 539.18 786.41 539.02 786.41
  L 533.75 786.41
  Q 533.59 786.41 533.59 786.25
  L 533.59 781.21
  Q 533.59 780.76 534.01 780.61
  L 534.38 780.49
  Q 534.71 780.37 534.71 780.01
  L 534.71 776.66
  A 0.68 0.68 0.0 0 0 534.03 775.98
  L 528.16 775.98
  Q 527.41 775.98 527.41 776.73
  L 527.41 786.02
  A 0.39 0.38 0.0 0 1 527.02 786.40
  L 525.27 786.40
  Q 524.61 786.40 524.61 785.74
  L 524.61 781.20
  Q 524.61 780.83 524.94 780.68
  L 525.26 780.53
  A 0.74 0.74 0.0 0 0 525.69 779.86
  L 525.69 776.86
  Q 525.69 775.98 524.81 775.98
  L 519.17 775.98
  Q 518.41 775.98 518.41 776.74
  L 518.41 786.01
  Q 518.41 786.40 518.02 786.40
  L 516.25 786.40
  A 0.65 0.64 90.0 0 1 515.61 785.75
  L 515.61 781.16
  Q 515.61 780.78 515.97 780.66
  L 516.36 780.52
  A 0.46 0.46 0.0 0 0 516.68 780.08
  L 516.68 776.90
  Q 516.68 775.98 515.76 775.98
  L 510.22 775.98
  Q 509.41 775.98 509.41 776.79
  L 509.41 785.20
  Q 509.41 786.44 508.17 786.44
  L 502.34 786.44
  Q 500.99 786.44 500.99 785.10
  L 500.99 781.45
  Q 500.99 780.96 501.39 780.67
  L 501.91 780.29
  Q 502.23 780.05 502.23 779.66
  L 502.23 776.70
  Q 502.23 775.75 501.28 775.75
  L 495.92 775.75
  Q 495.01 775.75 495.01 776.65
  L 495.01 784.96
  Q 495.01 786.43 493.55 786.43
  L 487.79 786.43
  A 1.26 1.26 0.0 0 1 486.54 785.00
  L 487.70 776.56
  Q 487.75 776.20 487.46 775.98
  Q 487.34 775.90 487.19 775.83
  Q 485.71 775.20 487.23 775.55"
/>
<path stroke="#8f8e8c" vector-effect="non-scaling-stroke" d="
  M 500.2703 771.5946
  A 0.58 0.58 0.0 0 0 499.7015 771.0036
  L 496.2422 770.9372
  A 0.58 0.58 0.0 0 0 495.6511 771.5059
  L 495.5897 774.7054
  A 0.58 0.58 0.0 0 0 496.1585 775.2964
  L 499.6178 775.3628
  A 0.58 0.58 0.0 0 0 500.2089 774.7941
  L 500.2703 771.5946"
/>
<path stroke="#8f8e8c" vector-effect="non-scaling-stroke" d="
  M 556.38 774.96
  Q 556.90 773.61 556.90 772.40
  Q 556.90 770.95 555.44 770.96
  L 550.30 770.97
  Q 549.15 770.98 549.16 772.13
  L 549.22 790.55
  Q 549.22 791.00 549.67 791.00
  L 555.08 790.98
  Q 555.63 790.97 555.60 790.42
  Q 555.30 784.11 555.68 777.34
  Q 555.71 776.69 556.38 774.96"
/>
<path stroke="#8f8e8c" vector-effect="non-scaling-stroke" d="
  M 577.59 774.70
  Q 577.59 773.99 578.30 773.99
  L 579.97 773.99
  Q 580.42 773.99 580.42 773.54
  L 580.42 771.64
  Q 580.42 771.07 579.85 771.01
  Q 575.34 770.55 573.84 773.93
  Q 573.62 774.43 573.64 774.99
  Q 573.70 776.49 572.83 777.46
  A 0.92 0.91 20.7 0 0 573.52 778.98
  L 580.15 778.98
  Q 580.87 778.98 580.87 778.26
  L 580.87 777.56
  Q 580.87 777.04 580.35 777.04
  L 578.24 777.04
  A 0.66 0.65 90.0 0 1 577.59 776.38
  L 577.59 774.70"
/>
<path stroke="#8f8e8c" vector-effect="non-scaling-stroke" d="
  M 564.59 783.74
  C 565.33 787.02 564.29 790.97 569.27 790.98
  Q 592.16 791.04 600.72 790.98
  Q 601.23 790.98 601.23 790.46
  L 601.23 775.98
  Q 601.23 775.43 601.77 775.43
  L 602.08 775.43
  Q 602.50 775.43 602.51 775.01
  L 602.61 771.91
  Q 602.64 770.98 601.71 770.98
  L 596.20 770.98
  Q 595.18 770.98 595.18 772.00
  L 595.18 786.24
  Q 595.18 786.41 595.02 786.41
  L 589.69 786.41
  Q 589.39 786.41 589.39 786.11
  L 589.39 776.08
  Q 589.39 775.74 589.69 775.58
  L 590.17 775.33
  Q 590.56 775.13 590.56 774.69
  L 590.56 771.85
  Q 590.56 770.98 589.69 770.98
  L 583.95 770.98
  Q 583.19 770.98 583.19 771.75
  L 583.19 785.99
  Q 583.19 786.41 582.77 786.41
  L 571.85 786.41
  Q 570.92 786.41 570.92 785.48
  L 570.92 779.91
  Q 570.92 778.97 569.98 778.97
  L 564.50 778.97
  Q 563.59 778.97 563.59 779.87
  L 563.59 783.28
  Q 563.59 783.50 563.81 783.50
  L 564.29 783.50
  A 0.32 0.31 82.8 0 1 564.59 783.74"
/>
<path stroke="#8f8e8c" vector-effect="non-scaling-stroke" d="
  M 621.56 775.57
  Q 621.53 775.53 621.49 775.50
  Q 621.22 775.28 621.55 775.34
  Q 622.40 775.47 622.93 775.08
  Q 623.25 774.84 623.23 773.90
  Q 623.21 772.48 623.29 771.74
  A 0.67 0.67 0.0 0 0 622.62 771.00
  L 619.31 771.00
  Q 618.69 771.00 618.65 771.62
  L 617.78 785.78
  A 0.68 0.67 1.8 0 1 617.10 786.41
  L 612.51 786.41
  A 0.61 0.61 0.0 0 1 611.90 785.80
  L 611.90 771.69
  Q 611.90 770.99 611.20 770.99
  L 605.22 770.99
  Q 604.62 770.99 604.61 771.59
  Q 604.58 773.06 604.68 773.96
  Q 604.73 774.38 605.39 775.89
  Q 605.78 776.79 605.76 778.01
  Q 605.75 778.49 605.83 790.45
  Q 605.83 790.97 606.36 790.98
  Q 614.26 791.07 620.47 790.93
  Q 622.63 790.88 623.40 788.79
  Q 623.56 788.38 623.84 788.71
  Q 625.31 790.38 627.47 790.87
  Q 628.07 791.01 631.54 791.04
  C 634.06 791.06 636.85 791.43 637.86 788.94
  A 0.50 0.50 0.0 0 1 638.73 788.85
  Q 640.16 790.96 642.34 790.98
  Q 649.55 791.03 659.44 791.00
  Q 659.88 790.99 659.96 790.56
  Q 660.43 787.82 659.21 785.98
  Q 658.92 785.54 658.93 785.01
  Q 658.97 783.80 658.81 780.98
  C 658.60 777.11 655.69 775.93 652.24 775.96
  Q 648.53 776.00 645.64 776.51
  Q 645.41 776.55 645.41 776.78
  L 645.41 780.99
  A 0.21 0.20 -10.1 0 0 645.69 781.18
  Q 648.69 780.19 652.45 780.73
  Q 653.10 780.82 653.10 781.48
  L 653.10 785.91
  A 0.50 0.50 0.0 0 1 652.60 786.41
  L 639.23 786.41
  Q 638.59 786.41 638.59 785.77
  L 638.59 781.63
  Q 638.59 781.14 638.95 780.81
  L 639.21 780.56
  A 1.38 1.35 70.9 0 0 639.63 779.67
  L 639.79 776.98
  Q 639.85 775.97 638.84 775.97
  L 633.29 775.97
  Q 632.39 775.97 632.39 776.87
  L 632.39 785.75
  A 0.65 0.65 0.0 0 1 631.74 786.40
  L 624.75 786.40
  Q 624.16 786.40 624.07 785.81
  Q 623.62 782.68 624.79 780.03
  C 625.40 778.66 625.13 777.98 625.27 776.76
  Q 625.33 776.22 624.81 776.08
  Q 623.05 775.60 621.73 775.60
  Q 621.59 775.60 621.56 775.57"
/>
<path stroke="#8f8e8c" vector-effect="non-scaling-stroke" d="
  M 362.5898 792.7382
  A 0.34 0.34 0.0 0 0 362.2480 792.4000
  L 358.4280 792.4200
  A 0.34 0.34 0.0 0 0 358.0898 792.7618
  L 358.1102 796.6618
  A 0.34 0.34 0.0 0 0 358.4520 797.0000
  L 362.2720 796.9800
  A 0.34 0.34 0.0 0 0 362.6102 796.6382
  L 362.5898 792.7382"
/>
<path stroke="#8f8e8c" vector-effect="non-scaling-stroke" d="
  M 637.7033 792.7939
  A 0.39 0.39 0.0 0 0 637.3140 792.4033
  L 633.5740 792.3967
  A 0.39 0.39 0.0 0 0 633.1833 792.7861
  L 633.1767 796.5861
  A 0.39 0.39 0.0 0 0 633.5660 796.9767
  L 637.3060 796.9833
  A 0.39 0.39 0.0 0 0 637.6967 796.5939
  L 637.7033 792.7939"
/>
<path stroke="#8f8e8c" vector-effect="non-scaling-stroke" d="
  M 654.5465 792.8279
  A 0.42 0.42 0.0 0 0 654.1280 792.4065
  L 650.4280 792.3936
  A 0.42 0.42 0.0 0 0 650.0066 792.8121
  L 649.9935 796.5721
  A 0.42 0.42 0.0 0 0 650.4120 796.9935
  L 654.1120 797.0064
  A 0.42 0.42 0.0 0 0 654.5334 796.5879
  L 654.5465 792.8279"
/>
<path stroke="#8f8e8c" vector-effect="non-scaling-stroke" d="
  M 356.8234 792.7639
  A 0.35 0.35 0.0 0 0 356.4740 792.4133
  L 352.6540 792.4067
  A 0.35 0.35 0.0 0 0 352.3034 792.7561
  L 352.2966 796.6361
  A 0.35 0.35 0.0 0 0 352.6460 796.9867
  L 356.4660 796.9933
  A 0.35 0.35 0.0 0 0 356.8166 796.6439
  L 356.8234 792.7639"
/>
<path stroke="#8f8e8c" vector-effect="non-scaling-stroke" d="
  M 374.2298 792.8521
  A 0.43 0.43 0.0 0 0 373.8020 792.4198
  L 370.0621 792.4002
  A 0.43 0.43 0.0 0 0 369.6298 792.8280
  L 369.6102 796.5679
  A 0.43 0.43 0.0 0 0 370.0380 797.0002
  L 373.7779 797.0198
  A 0.43 0.43 0.0 0 0 374.2102 796.5920
  L 374.2298 792.8521"
/>
<path stroke="#8f8e8c" vector-effect="non-scaling-stroke" d="
  M 416.6132 798.8339
  A 0.43 0.43 0.0 0 0 416.1840 798.4031
  L 412.6040 798.3969
  A 0.43 0.43 0.0 0 0 412.1732 798.8261
  L 412.1668 802.5461
  A 0.43 0.43 0.0 0 0 412.5960 802.9769
  L 416.1760 802.9831
  A 0.43 0.43 0.0 0 0 416.6068 802.5539
  L 416.6132 798.8339"
/>
<path stroke="#8f8e8c" vector-effect="non-scaling-stroke" d="
  M 422.4132 798.8539
  A 0.44 0.44 0.0 0 0 421.9740 798.4131
  L 418.3940 798.4069
  A 0.44 0.44 0.0 0 0 417.9532 798.8461
  L 417.9468 802.5661
  A 0.44 0.44 0.0 0 0 418.3860 803.0069
  L 421.9660 803.0131
  A 0.44 0.44 0.0 0 0 422.4068 802.5739
  L 422.4132 798.8539"
/>
<path stroke="#8f8e8c" vector-effect="non-scaling-stroke" d="
  M 487.16 330.03
  Q 480.35 329.88 475.80 333.75
  Q 471.16 337.70 469.90 343.82
  A 0.91 0.91 0.0 0 0 470.79 344.92
  L 503.25 344.92
  A 0.52 0.51 82.5 0 0 503.74 344.27
  Q 501.98 337.73 497.60 333.93
  Q 493.28 330.16 487.16 330.03"
/>
<path stroke="#fcdc88" vector-effect="non-scaling-stroke" d="
  M 429.77 416.74
  Q 436.60 422.66 443.80 430.82
  Q 443.97 431.02 446.03 433.71
  Q 447.07 435.07 448.27 436.18
  A 0.67 0.67 0.0 0 0 449.39 435.78
  Q 449.78 432.99 449.94 431.28
  Q 450.13 429.41 449.80 426.78
  Q 449.60 425.20 449.42 420.80
  Q 449.30 417.94 447.22 412.84
  Q 446.93 412.12 445.86 410.90
  Q 445.03 409.96 444.40 408.79
  Q 443.41 406.94 442.13 405.59
  Q 437.17 400.35 436.16 399.11
  Q 434.10 396.58 432.38 395.28
  Q 431.12 394.33 428.09 391.43
  Q 425.56 389.01 421.53 385.87
  Q 410.13 377.00 399.46 371.44
  Q 388.00 365.47 372.74 360.02
  Q 371.81 359.69 361.85 356.89
  Q 359.51 356.23 357.49 355.95
  Q 355.23 355.65 353.15 355.00
  Q 350.38 354.12 346.62 353.80
  Q 342.82 353.48 335.04 352.57
  A 2.35 2.35 0.0 0 0 332.42 354.90
  L 332.42 377.48
  A 1.62 1.62 0.0 0 0 333.99 379.10
  Q 339.39 379.30 346.51 379.39
  Q 349.02 379.43 351.59 380.49
  Q 352.72 380.96 353.75 381.04
  C 355.96 381.21 357.39 381.28 359.34 381.76
  Q 366.27 383.46 370.13 384.67
  Q 370.15 384.67 374.18 386.18
  Q 376.23 386.95 378.43 387.44
  Q 380.37 387.88 384.20 389.59
  Q 386.74 390.72 389.79 391.91
  Q 397.86 395.06 408.69 401.57
  Q 420.42 408.62 429.77 416.74"
/>
<path stroke="#fcdc88" vector-effect="non-scaling-stroke" d="
  M 614.35 356.58
  Q 610.12 357.57 605.79 358.70
  Q 601.75 359.76 597.43 361.45
  Q 588.82 364.83 580.19 368.19
  Q 575.03 370.20 559.83 379.83
  Q 552.28 384.62 545.58 390.58
  Q 540.70 394.93 536.65 398.65
  Q 533.09 401.91 526.85 410.50
  Q 524.73 413.42 524.28 415.40
  Q 523.75 417.68 523.71 421.00
  Q 523.64 426.54 523.65 435.85
  A 0.57 0.57 0.0 0 0 524.57 436.30
  Q 526.30 434.97 527.53 433.33
  Q 529.04 431.32 529.09 431.25
  Q 537.25 421.78 543.40 416.66
  Q 545.60 414.84 556.91 406.37
  C 557.95 405.59 559.25 405.08 560.54 404.27
  Q 586.77 387.65 617.24 381.25
  Q 618.37 381.01 620.67 381.00"
/>
<path stroke="#8f8e8c" vector-effect="non-scaling-stroke" d="
  M 620.67 381.00
  Q 622.85 380.88 624.94 379.66"
/>
<path stroke="#fcdc88" vector-effect="non-scaling-stroke" d="
  M 624.94 379.66
  L 640.32 379.07
  A 2.27 2.27 0.0 0 0 642.49 377.06
  Q 642.78 374.39 642.23 372.10"
/>
<path stroke="#8f8e8c" vector-effect="non-scaling-stroke" d="
  M 642.23 372.10
  Q 642.51 363.89 642.34 355.79
  C 642.29 353.66 641.87 353.01 639.75 352.86
  Q 637.44 352.70 634.69 353.15
  Q 629.95 353.91 629.76 353.93
  Q 627.56 354.06 625.24 354.18
  C 623.95 354.24 622.70 354.79 621.45 355.17
  C 619.18 355.88 616.79 355.72 614.35 356.58"
/>
<path stroke="#8b6b15" vector-effect="non-scaling-stroke" d="
  M 642.23 372.10
  L 641.63 354.90
  A 1.37 1.35 90.0 0 0 640.33 353.59
  C 638.36 353.49 636.46 353.49 634.26 353.95
  Q 630.42 354.74 625.93 354.68
  C 623.55 354.64 620.66 356.12 617.96 356.36
  Q 616.20 356.52 614.35 356.58"
/>
<path stroke="#8b6b15" vector-effect="non-scaling-stroke" d="
  M 624.94 379.66
  Q 622.42 379.72 620.67 381.00"
/>
<path stroke="#8f8e8c" vector-effect="non-scaling-stroke" d="
  M 503.41 364.38
  A 0.27 0.27 0.0 0 0 503.14 364.11
  L 470.34 364.11
  A 0.27 0.27 0.0 0 0 470.07 364.38
  L 470.07 379.42
  A 0.27 0.27 0.0 0 0 470.34 379.69
  L 503.14 379.69
  A 0.27 0.27 0.0 0 0 503.41 379.42
  L 503.41 364.38"
/>
<path stroke="#8f8e8c" vector-effect="non-scaling-stroke" d="
  M 437.76 474.56
  Q 437.99 475.78 439.49 476.55"
/>
<path stroke="#fcdc88" vector-effect="non-scaling-stroke" d="
  M 439.49 476.55
  L 448.46 488.47
  Q 450.12 490.68 450.19 487.91
  Q 450.29 484.03 450.20 479.63
  Q 450.10 474.89 449.15 471.42
  Q 447.11 463.94 442.20 457.64"
/>
<path stroke="#8f8e8c" vector-effect="non-scaling-stroke" d="
  M 442.20 457.64
  Q 442.27 456.18 440.83 455.74"
/>
<path stroke="#fcdc88" vector-effect="non-scaling-stroke" d="
  M 440.83 455.74
  Q 427.52 438.72 413.17 428.32
  Q 403.08 421.02 399.75 418.98
  Q 377.82 405.54 352.94 399.84
  Q 348.96 398.93 346.74 398.71
  Q 342.96 398.34 340.49 397.85
  Q 338.91 397.54 334.45 397.45
  A 2.03 2.03 0.0 0 0 332.38 399.48
  L 332.38 420.88
  A 1.50 1.49 0.2 0 0 333.87 422.37
  C 335.10 422.37 336.44 422.31 337.80 422.59
  Q 340.60 423.18 343.44 423.33
  Q 345.34 423.44 345.82 423.64
  Q 346.98 424.14 348.21 423.88
  Q 349.49 423.61 351.70 424.29
  Q 354.81 425.26 356.26 425.45
  Q 358.55 425.76 360.66 426.90
  Q 361.51 427.35 365.75 428.50
  Q 368.84 429.33 370.76 430.19
  Q 374.56 431.88 378.31 433.30
  Q 378.90 433.52 379.89 434.09
  Q 380.66 434.53 381.57 434.63
  Q 382.56 434.74 384.01 435.51
  Q 391.56 439.49 393.56 440.35
  C 395.60 441.24 397.24 442.62 399.62 443.92
  Q 402.77 445.64 404.12 446.55
  Q 417.90 455.81 425.45 462.29
  Q 430.45 466.58 437.76 474.56"
/>
<path stroke="#8b6b15" vector-effect="non-scaling-stroke" d="
  M 440.83 455.74
  Q 440.96 456.72 442.20 457.64"
/>
<path stroke="#8b6b15" vector-effect="non-scaling-stroke" d="
  M 439.49 476.55
  Q 439.22 475.16 437.76 474.56"
/>
<path stroke="#fcdc88" vector-effect="non-scaling-stroke" d="
  M 583.64 413.18
  Q 581.46 414.42 578.73 415.51
  Q 575.29 416.89 563.51 425.27
  Q 543.81 439.26 529.53 458.77
  Q 528.93 459.59 525.50 465.71
  C 524.74 467.07 524.33 469.05 524.09 470.07
  C 523.40 472.97 523.74 475.77 523.23 478.34
  C 522.62 481.44 522.80 486.27 522.90 488.43
  Q 523.00 490.58 524.36 488.88
  Q 524.53 488.66 531.21 480.05
  Q 534.74 475.48 538.46 471.56
  Q 549.61 459.79 559.64 452.87
  Q 571.36 444.78 576.62 441.60
  Q 577.87 440.85 586.42 436.46
  Q 588.02 435.63 590.61 434.77
  Q 591.62 434.44 594.81 433.03
  Q 598.76 431.29 601.09 430.51
  Q 607.76 428.27 613.10 426.52
  Q 615.77 425.65 619.21 425.00
  Q 620.03 424.85 625.40 423.78
  Q 627.85 423.29 629.57 423.27
  Q 632.17 423.23 633.75 422.65
  Q 635.41 422.03 637.29 422.15
  Q 638.48 422.22 640.89 421.98
  A 1.65 1.64 87.5 0 0 642.38 420.35
  Q 642.42 410.65 642.29 400.76
  C 642.24 396.69 637.31 397.51 634.27 398.06
  Q 630.53 398.75 627.87 398.73
  C 625.27 398.71 623.73 399.20 621.59 399.84
  C 620.04 400.31 618.71 400.01 617.20 400.55
  Q 610.32 402.99 603.76 404.69
  Q 600.11 405.63 596.13 407.62
  Q 593.65 408.85 588.52 410.81
  Q 586.30 411.66 583.64 413.18"
/>
<path stroke="#8f8e8c" vector-effect="non-scaling-stroke" d="
  M 470.28 559.83
  Q 473.16 561.84 478.11 560.54"
/>
<path stroke="#fcdc88" vector-effect="non-scaling-stroke" d="
  M 478.11 560.54
  L 482.76 560.23"
/>
<path stroke="#8f8e8c" vector-effect="non-scaling-stroke" d="
  M 482.76 560.23
  Q 484.17 561.21 487.21 560.73"
/>
<path stroke="#fcdc88" vector-effect="non-scaling-stroke" d="
  M 487.21 560.73
  L 493.18 560.43"
/>
<path stroke="#8f8e8c" vector-effect="non-scaling-stroke" d="
  M 493.18 560.43
  Q 497.39 561.53 501.62 560.39"
/>
<path stroke="#fcdc88" vector-effect="non-scaling-stroke" d="
  M 501.62 560.39
  Q 503.05 560.19 503.05 559.01
  Q 503.16 493.51 503.13 401.16
  Q 503.13 398.77 500.74 398.77
  L 487.34 398.77
  Q 486.66 398.77 486.58 399.45
  Q 485.80 406.34 485.93 412.37
  Q 486.08 419.56 486.08 419.61
  Q 485.97 425.72 486.42 549.25
  Q 486.43 553.10 486.60 557.06"
/>
<path stroke="#8f8e8c" vector-effect="non-scaling-stroke" d="
  M 486.60 557.06
  Q 483.99 556.71 483.57 557.93"
/>
<path stroke="#fcdc88" vector-effect="non-scaling-stroke" d="
  M 483.57 557.93
  Q 483.83 548.64 483.88 539.25
  Q 484.27 466.66 483.92 406.84
  Q 483.91 405.53 483.32 399.29
  Q 483.27 398.69 482.67 398.69
  L 471.80 398.69
  A 1.76 1.76 0.0 0 0 470.04 400.46
  L 470.28 559.83"
/>
<path stroke="#8b6b15" vector-effect="non-scaling-stroke" d="
  M 483.57 557.93
  L 482.76 560.23"
/>
<path stroke="#8b6b15" vector-effect="non-scaling-stroke" d="
  M 478.11 560.54
  L 470.28 559.83"
/>
<path stroke="#8b6b15" vector-effect="non-scaling-stroke" d="
  M 501.62 560.39
  L 493.18 560.43"
/>
<path stroke="#8b6b15" vector-effect="non-scaling-stroke" d="
  M 487.21 560.73
  L 486.60 557.06"
/>
<path stroke="#fcdc88" vector-effect="non-scaling-stroke" d="
  M 427.16 491.16
  Q 423.13 486.48 419.56 483.10
  Q 408.43 472.60 398.26 465.89
  Q 387.19 458.58 379.58 454.81
  Q 371.10 450.62 357.51 445.70
  C 355.29 444.90 353.87 444.78 351.79 444.01
  Q 350.37 443.48 347.52 442.97
  Q 342.85 442.15 338.07 440.89
  Q 337.66 440.78 334.93 440.94
  Q 333.55 441.03 332.99 441.75
  Q 332.49 442.41 332.45 444.05
  Q 332.38 447.52 332.33 466.55
  Q 332.33 469.84 335.58 470.05
  C 338.56 470.24 340.91 469.86 344.10 470.77
  Q 346.51 471.45 348.37 471.58
  Q 349.83 471.68 351.29 472.47
  Q 352.12 472.92 354.22 473.50
  Q 358.31 474.63 358.67 474.75
  Q 378.05 481.54 395.73 492.03
  Q 421.87 507.53 441.18 530.80
  Q 441.21 530.84 444.42 535.05
  Q 445.61 536.60 448.07 539.17
  A 0.55 0.55 0.0 0 0 449.01 538.89
  C 449.90 534.26 449.10 529.97 448.20 524.21
  Q 448.12 523.68 447.85 523.18
  Q 447.58 522.69 447.40 522.17
  Q 445.25 515.92 443.09 512.13
  Q 441.16 508.76 432.48 497.13
  C 430.98 495.11 428.77 493.02 427.16 491.16"
/>
<path stroke="#fcdc88" vector-effect="non-scaling-stroke" d="
  M 633.57 441.48
  Q 630.94 441.60 629.72 442.06
  C 627.67 442.83 626.06 442.70 623.88 443.33
  Q 618.80 444.80 609.97 447.80
  Q 607.42 448.66 606.12 449.35
  Q 604.43 450.24 602.23 450.83
  Q 599.58 451.53 596.47 453.08
  Q 578.63 461.95 563.20 474.45
  Q 547.91 486.85 535.49 503.50
  Q 530.78 509.83 527.87 515.36
  Q 525.27 520.31 524.70 523.75
  Q 523.49 531.05 523.73 538.99
  Q 523.78 540.58 525.00 539.57
  C 527.56 537.45 529.25 534.24 530.85 532.32
  Q 541.69 519.29 551.69 510.70
  Q 576.57 489.33 609.06 477.06
  Q 620.39 472.77 630.54 470.85
  Q 633.85 470.22 635.58 470.20
  Q 637.80 470.16 640.79 469.42
  Q 642.35 469.03 642.35 467.42
  L 642.35 442.79
  Q 642.35 442.34 642.00 442.06
  Q 639.82 440.33 637.17 440.92
  Q 635.03 441.41 633.57 441.48"
/>
<path stroke="#8f8e8c" vector-effect="non-scaling-stroke" d="
  M 505.97 580.52
  A 0.85 0.85 0.0 0 0 505.22 579.25
  L 468.06 579.32
  A 0.85 0.85 0.0 0 0 467.31 580.58
  L 485.96 613.93
  A 0.85 0.85 0.0 0 0 487.44 613.93
  L 505.97 580.52"
/>
<path stroke="#8f8e8c" vector-effect="non-scaling-stroke" d="
  M 381.43 714.61
  Q 384.43 715.28 387.93 714.94
  Q 388.42 714.89 388.42 714.39
  Q 388.45 709.05 388.42 701.46
  C 388.40 697.18 387.85 693.98 382.93 694.06
  Q 378.25 694.13 378.03 698.59
  Q 377.72 705.10 377.96 710.20
  Q 378.13 713.87 381.43 714.61"
/>
<path stroke="#8f8e8c" vector-effect="non-scaling-stroke" d="
  M 582.11 714.65
  Q 585.11 715.32 588.62 714.96
  Q 589.11 714.91 589.11 714.41
  Q 589.12 709.06 589.06 701.46
  C 589.03 697.17 588.47 693.96 583.54 694.06
  Q 578.85 694.15 578.65 698.62
  Q 578.36 705.14 578.62 710.25
  Q 578.80 713.92 582.11 714.65"
/>
<path stroke="#8f8e8c" vector-effect="non-scaling-stroke" d="
  M 451.1010 781.3276
  A 0.74 0.74 0.0 0 0 450.3546 780.5941
  L 448.9746 780.6061
  A 0.74 0.74 0.0 0 0 448.2411 781.3526
  L 448.2790 785.6924
  A 0.74 0.74 0.0 0 0 449.0254 786.4259
  L 450.4054 786.4139
  A 0.74 0.74 0.0 0 0 451.1389 785.6674
  L 451.1010 781.3276"
/>
</g>
<path fill="#1e1d19" d="
  M 1000.00 0.00
  L 1000.00 749.13
  Q 999.97 747.07 997.75 749.93
  Q 997.42 750.35 997.84 750.69
  Q 998.64 751.31 1000.00 750.63
  L 1000.00 1000.00
  L 0.00 1000.00
  L 0.00 0.00
  L 1000.00 0.00
  Z
  M 443.21 619.22
  L 443.21 615.11
  Q 443.21 614.56 442.88 614.13
  Q 440.74 611.28 437.06 610.43
  Q 406.99 603.44 380.75 587.76
  Q 371.23 582.07 364.16 577.16
  Q 351.15 568.15 338.12 555.41
  Q 307.90 525.85 293.09 487.96
  Q 289.97 479.98 287.03 468.86
  Q 274.56 421.70 286.15 374.19
  Q 287.56 368.44 290.11 360.44
  Q 293.15 350.93 294.93 346.94
  Q 322.17 285.88 379.85 251.34
  Q 396.65 241.28 416.39 234.35
  Q 464.30 217.55 513.11 224.04
  Q 523.59 225.43 532.91 227.65
  Q 585.94 240.27 627.17 276.19
  Q 638.69 286.24 651.18 301.38
  Q 669.62 323.76 679.03 347.86
  C 687.31 369.04 692.37 389.75 692.96 412.02
  Q 693.65 438.38 687.85 464.24
  C 685.77 473.49 682.53 483.50 679.30 491.55
  Q 672.40 508.80 661.77 524.28
  Q 650.35 540.92 636.32 554.85
  Q 631.38 559.74 625.28 564.71
  Q 619.68 569.26 613.58 573.81
  Q 586.25 594.19 553.70 604.92
  Q 545.57 607.60 534.17 610.63
  Q 531.54 611.32 530.32 614.02
  C 529.56 615.70 529.97 617.55 529.79 619.19
  Q 529.74 619.70 529.24 619.83
  C 526.69 620.45 523.46 620.82 521.40 622.09
  Q 517.52 624.50 515.98 628.57
  Q 514.49 632.51 516.48 636.31
  Q 519.22 641.54 525.21 643.06
  C 526.09 643.29 527.20 643.16 528.52 643.20
  Q 529.20 643.22 530.72 644.50
  Q 533.48 646.81 538.33 645.74
  Q 573.89 637.93 606.04 621.01
  Q 641.84 602.16 669.49 572.42
  Q 672.17 569.53 673.86 567.44
  Q 676.47 564.24 678.07 562.32
  Q 696.76 539.89 709.75 511.78
  Q 723.10 482.85 728.56 446.43
  Q 729.94 437.24 730.15 426.51
  Q 730.42 412.83 730.01 405.00
  Q 728.92 384.24 722.89 362.88
  Q 713.04 327.97 694.23 299.56
  Q 682.83 282.34 673.58 272.22
  Q 658.59 255.83 650.90 249.11
  Q 595.72 200.94 523.74 188.55
  Q 512.03 186.54 503.55 186.14
  Q 489.65 185.48 473.01 186.01
  Q 460.53 186.41 445.98 189.16
  Q 425.19 193.09 407.08 199.33
  Q 386.98 206.26 372.73 214.08
  Q 363.49 219.15 355.45 224.13
  Q 329.31 240.30 307.63 263.65
  Q 301.23 270.54 295.08 278.07
  C 266.20 313.43 248.10 356.56 244.32 402.06
  Q 243.95 406.53 243.91 412.96
  C 243.86 421.58 243.68 431.73 244.58 440.17
  Q 251.92 508.85 296.53 562.87
  Q 309.36 578.41 322.45 589.75
  Q 356.82 619.55 399.14 635.78
  Q 415.12 641.92 434.83 646.10
  Q 439.91 647.18 443.30 643.83
  Q 443.67 643.47 444.17 643.37
  C 445.86 643.02 447.75 643.38 449.43 642.90
  C 456.10 640.98 460.34 633.70 456.91 627.12
  Q 453.92 621.38 447.24 620.38
  Q 446.39 620.25 443.82 619.91
  Q 443.21 619.83 443.21 619.22
  Z
  M 486.54 301.32
  Q 492.32 301.27 495.98 300.24
  Q 508.23 296.82 514.31 285.16
  C 520.04 274.17 519.34 259.90 510.71 250.27
  C 503.78 242.55 496.78 238.98 486.25 239.07
  Q 480.47 239.12 476.81 240.14
  Q 464.56 243.57 458.48 255.23
  C 452.75 266.22 453.45 280.49 462.08 290.11
  C 469.01 297.84 476.01 301.41 486.54 301.32
  Z
  M 427.2651 264.8144
  A 9.84 9.84 0.0 0 0 413.3528 264.4987
  L 412.1238 265.6732
  A 9.84 9.84 0.0 0 0 411.8080 279.5855
  L 412.9549 280.7856
  A 9.84 9.84 0.0 0 0 426.8672 281.1013
  L 428.0962 279.9268
  A 9.84 9.84 0.0 0 0 428.4120 266.0145
  L 427.2651 264.8144
  Z
  M 563.68 272.81
  A 10.82 10.82 0.0 0 0 552.86 261.99
  A 10.82 10.82 0.0 0 0 542.04 272.81
  A 10.82 10.82 0.0 0 0 552.86 283.63
  A 10.82 10.82 0.0 0 0 563.68 272.81
  Z
  M 394.05 304.87
  A 10.99 10.99 0.0 0 0 383.06 293.88
  A 10.99 10.99 0.0 0 0 372.07 304.87
  A 10.99 10.99 0.0 0 0 383.06 315.86
  A 10.99 10.99 0.0 0 0 394.05 304.87
  Z
  M 601.3977 303.9708
  A 11.12 10.95 -5.0 0 0 589.3656 294.0317
  A 11.12 10.95 -5.0 0 0 579.2423 305.9092
  A 11.12 10.95 -5.0 0 0 591.2744 315.8483
  A 11.12 10.95 -5.0 0 0 601.3977 303.9708
  Z
  M 438.22 318.71
  A 10.95 10.95 0.0 0 0 427.27 307.76
  A 10.95 10.95 0.0 0 0 416.32 318.71
  A 10.95 10.95 0.0 0 0 427.27 329.66
  A 10.95 10.95 0.0 0 0 438.22 318.71
  Z
  M 556.67 318.67
  A 10.95 10.95 0.0 0 0 545.72 307.72
  A 10.95 10.95 0.0 0 0 534.77 318.67
  A 10.95 10.95 0.0 0 0 545.72 329.62
  A 10.95 10.95 0.0 0 0 556.67 318.67
  Z
  M 449.42 377.31
  C 448.56 377.32 447.64 377.01 447.04 376.34
  Q 443.11 372.02 439.08 368.54
  Q 422.96 354.59 402.98 345.25
  Q 395.09 341.56 384.43 337.75
  C 370.64 332.81 356.82 329.34 342.78 328.33
  Q 340.24 328.14 332.83 327.65
  Q 326.61 327.23 323.65 327.82
  C 315.72 329.40 308.84 335.16 307.85 343.70
  C 307.51 346.67 307.04 349.89 307.03 353.03
  Q 306.98 379.39 307.08 471.10
  Q 307.08 474.10 307.38 477.21
  Q 307.79 481.55 308.38 483.21
  Q 312.04 493.34 322.72 496.08
  Q 324.09 496.43 328.42 496.35
  Q 332.74 496.27 337.65 497.86
  Q 373.38 509.43 401.93 533.22
  Q 414.06 543.33 420.96 551.10
  Q 426.28 557.09 432.43 564.50
  Q 437.36 570.43 444.97 582.03
  Q 447.30 585.57 467.44 619.43
  Q 479.47 639.64 485.15 649.20
  A 2.11 2.07 -23.0 0 0 487.52 650.13
  Q 488.07 649.97 488.76 648.77
  C 500.53 628.35 512.65 608.42 524.62 588.45
  Q 538.77 564.86 556.91 546.44
  Q 587.55 515.31 630.98 499.41
  Q 638.95 496.49 646.95 496.20
  Q 652.41 496.00 654.58 495.17
  Q 663.00 491.96 665.98 483.00
  Q 667.08 479.67 667.08 473.50
  Q 667.03 364.61 667.09 347.75
  C 667.13 336.39 658.36 328.09 647.25 327.52
  Q 644.50 327.38 629.94 328.67
  Q 620.16 329.52 612.78 331.21
  Q 600.89 333.92 589.19 337.71
  C 565.14 345.50 543.27 358.62 525.95 377.00
  Q 523.11 380.01 523.13 375.88
  Q 523.16 366.75 523.18 351.17
  Q 523.19 342.35 521.88 337.93
  Q 517.49 323.02 503.53 315.26
  Q 495.41 310.76 486.29 310.95
  Q 479.94 311.09 472.93 313.84
  C 462.17 318.06 454.52 326.94 451.27 338.20
  Q 449.76 343.42 449.88 357.45
  Q 449.95 365.83 449.91 376.82
  A 0.49 0.49 0.0 0 1 449.42 377.31
  Z
  M 380.5575 657.3267
  A 0.47 0.47 0.0 0 0 380.0867 656.8575
  L 365.7667 656.8825
  A 0.47 0.47 0.0 0 0 365.2975 657.3533
  L 365.3225 671.6733
  A 0.47 0.47 0.0 0 0 365.7933 672.1425
  L 380.1133 672.1175
  A 0.47 0.47 0.0 0 0 380.5825 671.6467
  L 380.5575 657.3267
  Z
  M 400.90 657.37
  A 0.47 0.47 0.0 0 0 400.43 656.90
  L 386.17 656.90
  A 0.47 0.47 0.0 0 0 385.70 657.37
  L 385.70 671.63
  A 0.47 0.47 0.0 0 0 386.17 672.10
  L 400.43 672.10
  A 0.47 0.47 0.0 0 0 400.90 671.63
  L 400.90 657.37
  Z
  M 591.3123 657.4333
  A 0.51 0.51 0.0 0 0 590.8032 656.9224
  L 576.6433 656.8977
  A 0.51 0.51 0.0 0 0 576.1324 657.4068
  L 576.1077 671.5667
  A 0.51 0.51 0.0 0 0 576.6168 672.0776
  L 590.7767 672.1023
  A 0.51 0.51 0.0 0 0 591.2876 671.5932
  L 591.3123 657.4333
  Z
  M 642.03 730.00
  A 0.35 0.35 0.0 0 0 642.38 729.65
  L 642.38 673.35
  A 0.35 0.35 0.0 0 1 642.73 673.00
  L 646.19 673.00
  A 0.35 0.35 0.0 0 0 646.54 672.65
  L 646.54 658.34
  A 0.35 0.35 0.0 0 0 646.19 657.99
  L 620.76 657.99
  A 0.35 0.35 0.0 0 0 620.41 658.34
  L 620.41 729.65
  A 0.35 0.35 0.0 0 0 620.76 730.00
  L 642.03 730.00
  Z
  M 556.69 714.99
  L 411.55 714.99
  A 0.57 0.57 0.0 0 1 410.98 714.42
  Q 411.05 708.59 410.95 703.15
  Q 410.83 696.53 408.95 692.18
  C 403.80 680.27 391.49 677.21 379.28 678.11
  C 368.57 678.90 360.20 683.91 356.94 694.41
  C 355.20 700.01 354.74 706.64 355.69 711.89
  Q 356.57 716.75 359.86 720.66
  Q 366.93 729.06 377.74 729.82
  Q 383.30 730.20 388.96 729.97
  A 0.41 0.41 0.0 0 1 389.38 730.44
  Q 388.86 733.72 385.80 735.01
  C 384.58 735.52 382.37 735.98 381.02 735.99
  Q 365.71 736.02 356.57 735.99
  Q 355.84 735.98 355.01 735.77
  C 353.75 735.43 352.30 735.26 351.27 734.67
  Q 348.45 733.04 348.43 729.24
  Q 348.35 716.68 348.40 705.60
  Q 348.41 704.99 347.80 704.99
  L 321.95 704.99
  Q 321.41 704.99 321.41 705.53
  L 321.41 719.46
  Q 321.41 719.99 321.95 719.99
  L 326.54 719.99
  Q 327.06 719.99 327.08 720.52
  Q 327.11 721.44 327.07 728.22
  Q 327.03 734.03 329.35 739.63
  C 331.69 745.26 336.31 748.91 341.99 750.54
  Q 347.25 752.04 350.55 752.04
  Q 382.97 752.02 387.07 751.96
  C 397.05 751.80 406.33 747.68 409.50 737.51
  Q 410.61 733.94 410.80 730.48
  Q 410.83 730.00 411.31 730.00
  L 611.24 730.00
  A 0.34 0.34 0.0 0 0 611.58 729.66
  Q 611.59 719.86 611.66 710.00
  Q 611.74 698.12 609.93 693.31
  Q 607.47 686.73 601.54 682.67
  C 594.11 677.59 583.32 677.02 574.71 678.90
  Q 561.39 681.81 557.48 694.44
  Q 554.45 704.22 557.06 714.52
  Q 557.18 714.99 556.69 714.99
  Z
  M 334.5631 771.5040
  A 0.49 0.49 0.0 0 0 334.0740 771.0131
  L 330.4940 771.0069
  A 0.49 0.49 0.0 0 0 330.0031 771.4960
  L 329.9969 775.0760
  A 0.49 0.49 0.0 0 0 330.4860 775.5669
  L 334.0660 775.5731
  A 0.49 0.49 0.0 0 0 334.5569 775.0840
  L 334.5631 771.5040
  Z
  M 340.2163 771.4780
  A 0.50 0.50 0.0 0 0 339.7180 770.9763
  L 336.1180 770.9637
  A 0.50 0.50 0.0 0 0 335.6163 771.4620
  L 335.6037 775.0620
  A 0.50 0.50 0.0 0 0 336.1020 775.5637
  L 339.7020 775.5763
  A 0.50 0.50 0.0 0 0 340.2037 775.0780
  L 340.2163 771.4780
  Z
  M 324.36 781.07
  C 324.36 784.76 323.43 788.35 326.64 790.68
  A 1.56 1.52 62.5 0 0 327.55 790.98
  Q 337.62 791.03 342.04 790.99
  C 343.44 790.98 344.48 790.33 345.18 789.08
  Q 345.45 788.59 345.85 788.99
  Q 347.64 790.76 349.50 790.98
  Q 350.94 791.15 357.10 790.90
  Q 358.14 790.86 358.77 790.32
  Q 359.13 790.02 359.96 788.90
  Q 360.25 788.50 360.60 788.85
  Q 362.62 790.92 363.79 790.96
  Q 370.00 791.14 371.78 790.97
  Q 373.41 790.81 374.63 788.63
  A 0.16 0.16 0.0 0 1 374.90 788.62
  C 375.88 790.13 377.51 791.01 379.37 791.01
  Q 384.20 791.01 388.16 790.99
  Q 388.70 790.98 388.70 790.44
  Q 388.70 783.12 388.70 779.14
  Q 388.69 777.31 389.35 775.50
  Q 389.99 773.76 389.87 771.65
  Q 389.84 771.00 389.18 771.00
  L 383.31 771.00
  Q 382.63 771.00 382.63 771.67
  L 382.63 785.28
  Q 382.63 786.45 381.47 786.45
  L 376.24 786.45
  Q 374.99 786.45 374.99 785.20
  L 374.99 781.79
  Q 374.99 781.24 375.35 780.84
  Q 376.57 779.51 376.20 776.44
  Q 376.15 775.99 375.69 775.99
  L 369.50 775.99
  Q 368.99 775.99 368.99 776.50
  L 368.99 785.07
  Q 368.99 786.42 367.64 786.42
  L 361.61 786.42
  Q 360.38 786.42 360.45 785.20
  L 360.71 781.11
  Q 360.73 780.79 361.01 780.65
  L 361.26 780.51
  Q 361.59 780.34 361.61 779.96
  L 361.80 776.98
  Q 361.86 775.97 360.85 775.97
  L 355.26 775.97
  Q 354.41 775.97 354.41 776.82
  L 354.41 785.14
  Q 354.41 786.43 353.11 786.43
  L 347.13 786.43
  Q 345.79 786.43 345.79 785.10
  L 345.79 781.03
  Q 345.79 780.39 346.40 780.56
  Q 346.57 780.61 346.74 780.63
  Q 347.27 780.69 347.30 780.16
  L 347.50 776.93
  Q 347.56 775.97 346.60 775.97
  L 340.52 775.97
  Q 339.60 775.97 339.60 776.88
  L 339.60 785.98
  A 0.42 0.42 0.0 0 1 339.18 786.40
  L 331.09 786.40
  A 0.54 0.53 0.0 0 1 330.55 785.87
  L 330.55 776.96
  Q 330.55 775.97 329.56 775.97
  L 324.13 775.97
  Q 323.18 775.97 323.18 776.92
  L 323.18 780.23
  Q 323.18 780.52 323.43 780.67
  Q 323.64 780.79 323.84 780.71
  A 0.38 0.38 0.0 0 1 324.36 781.07
  Z
  M 399.82 774.98
  Q 400.35 773.63 400.35 772.42
  Q 400.36 770.97 398.90 770.97
  L 393.76 770.97
  Q 392.61 770.97 392.61 772.12
  L 392.61 790.54
  Q 392.61 790.99 393.06 790.99
  L 398.47 790.99
  Q 399.02 790.99 398.99 790.44
  Q 398.71 784.12 399.11 777.35
  Q 399.15 776.70 399.82 774.98
  Z
  M 450.78 775.71
  L 448.59 775.71
  Q 448.08 775.71 447.60 775.90
  C 444.35 777.20 442.20 778.48 441.88 782.44
  Q 441.69 784.71 441.85 785.41
  Q 442.10 786.45 441.03 786.45
  L 437.69 786.45
  Q 436.90 786.45 436.90 785.66
  L 436.90 776.81
  Q 436.90 775.99 436.08 775.99
  L 423.72 775.99
  A 4.09 4.09 0.0 0 0 419.63 780.08
  L 419.63 792.07
  A 0.94 0.93 -90.0 0 1 418.70 793.01
  L 415.47 793.01
  Q 414.70 793.01 414.70 792.24
  L 414.70 781.97
  Q 414.70 781.39 414.12 781.39
  L 407.71 781.39
  Q 407.18 781.39 407.18 781.92
  L 407.18 785.38
  Q 407.18 785.85 407.63 785.99
  L 407.92 786.08
  Q 408.46 786.25 408.46 786.81
  L 408.46 797.02
  Q 408.46 797.57 409.02 797.57
  L 421.59 797.57
  A 4.22 4.21 0.0 0 0 425.81 793.36
  L 425.81 781.28
  A 0.69 0.69 0.0 0 1 426.50 780.59
  L 430.32 780.59
  Q 430.78 780.59 430.78 781.05
  L 430.78 790.52
  Q 430.78 791.00 431.26 791.00
  L 457.02 791.00
  Q 457.56 791.00 457.58 790.45
  Q 457.66 787.58 457.55 783.02
  Q 457.42 777.60 452.21 776.17
  A 0.49 0.49 0.0 0 1 451.85 775.70
  L 451.85 771.53
  Q 451.85 771.00 451.31 771.00
  L 448.17 771.00
  Q 447.39 771.00 447.39 771.78
  L 447.39 774.78
  Q 447.39 775.76 448.33 775.50
  Q 449.51 775.19 450.80 775.31
  A 0.20 0.20 0.0 0 1 450.78 775.71
  Z
  M 482.7882 771.6148
  A 0.63 0.63 0.0 0 0 482.1538 770.9892
  L 479.0339 771.0109
  A 0.63 0.63 0.0 0 0 478.4083 771.6453
  L 478.4318 775.0052
  A 0.63 0.63 0.0 0 0 479.0662 775.6308
  L 482.1861 775.6091
  A 0.63 0.63 0.0 0 0 482.8117 774.9747
  L 482.7882 771.6148
  Z
  M 487.23 775.55
  L 487.85 775.70
  Q 488.57 775.87 488.57 775.12
  L 488.57 771.52
  Q 488.57 771.00 488.05 771.00
  L 484.74 771.00
  Q 484.24 771.00 484.24 771.50
  L 484.24 775.23
  A 0.73 0.72 11.6 0 1 483.23 775.89
  Q 481.66 775.22 480.77 775.93
  Q 480.37 776.24 480.37 776.77
  L 480.37 786.01
  A 0.40 0.40 0.0 0 1 479.97 786.41
  L 474.11 786.41
  Q 473.50 786.41 473.58 785.81
  L 474.82 776.81
  Q 474.93 776.00 474.11 776.00
  L 468.28 776.00
  Q 467.57 776.00 467.58 776.70
  Q 467.66 785.17 467.55 791.01
  Q 467.52 793.03 464.13 792.35
  A 0.59 0.59 0.0 0 0 463.43 792.93
  L 463.43 795.78
  Q 463.43 796.40 464.03 796.56
  C 468.46 797.77 473.01 797.26 473.72 791.56
  Q 473.78 791.06 474.30 791.05
  Q 474.37 791.05 483.38 790.94
  Q 484.72 790.92 485.97 788.89
  Q 486.25 788.41 486.59 788.85
  Q 488.28 791.09 491.75 791.05
  Q 496.23 791.01 497.99 790.87
  Q 499.60 790.73 500.54 788.63
  A 0.20 0.20 0.0 0 1 500.88 788.60
  Q 502.47 790.84 505.07 790.95
  Q 508.46 791.08 511.85 790.97
  Q 512.97 790.94 513.70 790.41
  Q 514.60 789.75 515.17 788.94
  Q 515.54 788.42 515.97 788.89
  C 516.46 789.44 516.89 790.07 517.52 790.37
  Q 521.68 792.36 523.97 788.91
  Q 524.35 788.33 524.75 788.90
  C 525.78 790.37 526.84 790.94 528.76 790.97
  Q 535.84 791.09 544.74 790.95
  Q 545.24 790.94 545.24 790.44
  L 545.24 776.22
  Q 545.24 775.79 545.58 775.53
  Q 545.76 775.40 545.96 775.40
  Q 546.59 775.40 546.59 774.76
  L 546.59 771.92
  Q 546.59 770.98 545.65 770.98
  L 539.96 770.98
  Q 539.18 770.98 539.18 771.75
  L 539.18 786.24
  Q 539.18 786.41 539.02 786.41
  L 533.75 786.41
  Q 533.59 786.41 533.59 786.25
  L 533.59 781.21
  Q 533.59 780.76 534.01 780.61
  L 534.38 780.49
  Q 534.71 780.37 534.71 780.01
  L 534.71 776.66
  A 0.68 0.68 0.0 0 0 534.03 775.98
  L 528.16 775.98
  Q 527.41 775.98 527.41 776.73
  L 527.41 786.02
  A 0.39 0.38 0.0 0 1 527.02 786.40
  L 525.27 786.40
  Q 524.61 786.40 524.61 785.74
  L 524.61 781.20
  Q 524.61 780.83 524.94 780.68
  L 525.26 780.53
  A 0.74 0.74 0.0 0 0 525.69 779.86
  L 525.69 776.86
  Q 525.69 775.98 524.81 775.98
  L 519.17 775.98
  Q 518.41 775.98 518.41 776.74
  L 518.41 786.01
  Q 518.41 786.40 518.02 786.40
  L 516.25 786.40
  A 0.65 0.64 90.0 0 1 515.61 785.75
  L 515.61 781.16
  Q 515.61 780.78 515.97 780.66
  L 516.36 780.52
  A 0.46 0.46 0.0 0 0 516.68 780.08
  L 516.68 776.90
  Q 516.68 775.98 515.76 775.98
  L 510.22 775.98
  Q 509.41 775.98 509.41 776.79
  L 509.41 785.20
  Q 509.41 786.44 508.17 786.44
  L 502.34 786.44
  Q 500.99 786.44 500.99 785.10
  L 500.99 781.45
  Q 500.99 780.96 501.39 780.67
  L 501.91 780.29
  Q 502.23 780.05 502.23 779.66
  L 502.23 776.70
  Q 502.23 775.75 501.28 775.75
  L 495.92 775.75
  Q 495.01 775.75 495.01 776.65
  L 495.01 784.96
  Q 495.01 786.43 493.55 786.43
  L 487.79 786.43
  A 1.26 1.26 0.0 0 1 486.54 785.00
  L 487.70 776.56
  Q 487.75 776.20 487.46 775.98
  Q 487.34 775.90 487.19 775.83
  Q 485.71 775.20 487.23 775.55
  Z
  M 500.2703 771.5946
  A 0.58 0.58 0.0 0 0 499.7015 771.0036
  L 496.2422 770.9372
  A 0.58 0.58 0.0 0 0 495.6511 771.5059
  L 495.5897 774.7054
  A 0.58 0.58 0.0 0 0 496.1585 775.2964
  L 499.6178 775.3628
  A 0.58 0.58 0.0 0 0 500.2089 774.7941
  L 500.2703 771.5946
  Z
  M 556.38 774.96
  Q 556.90 773.61 556.90 772.40
  Q 556.90 770.95 555.44 770.96
  L 550.30 770.97
  Q 549.15 770.98 549.16 772.13
  L 549.22 790.55
  Q 549.22 791.00 549.67 791.00
  L 555.08 790.98
  Q 555.63 790.97 555.60 790.42
  Q 555.30 784.11 555.68 777.34
  Q 555.71 776.69 556.38 774.96
  Z
  M 577.59 774.70
  Q 577.59 773.99 578.30 773.99
  L 579.97 773.99
  Q 580.42 773.99 580.42 773.54
  L 580.42 771.64
  Q 580.42 771.07 579.85 771.01
  Q 575.34 770.55 573.84 773.93
  Q 573.62 774.43 573.64 774.99
  Q 573.70 776.49 572.83 777.46
  A 0.92 0.91 20.7 0 0 573.52 778.98
  L 580.15 778.98
  Q 580.87 778.98 580.87 778.26
  L 580.87 777.56
  Q 580.87 777.04 580.35 777.04
  L 578.24 777.04
  A 0.66 0.65 90.0 0 1 577.59 776.38
  L 577.59 774.70
  Z
  M 564.59 783.74
  C 565.33 787.02 564.29 790.97 569.27 790.98
  Q 592.16 791.04 600.72 790.98
  Q 601.23 790.98 601.23 790.46
  L 601.23 775.98
  Q 601.23 775.43 601.77 775.43
  L 602.08 775.43
  Q 602.50 775.43 602.51 775.01
  L 602.61 771.91
  Q 602.64 770.98 601.71 770.98
  L 596.20 770.98
  Q 595.18 770.98 595.18 772.00
  L 595.18 786.24
  Q 595.18 786.41 595.02 786.41
  L 589.69 786.41
  Q 589.39 786.41 589.39 786.11
  L 589.39 776.08
  Q 589.39 775.74 589.69 775.58
  L 590.17 775.33
  Q 590.56 775.13 590.56 774.69
  L 590.56 771.85
  Q 590.56 770.98 589.69 770.98
  L 583.95 770.98
  Q 583.19 770.98 583.19 771.75
  L 583.19 785.99
  Q 583.19 786.41 582.77 786.41
  L 571.85 786.41
  Q 570.92 786.41 570.92 785.48
  L 570.92 779.91
  Q 570.92 778.97 569.98 778.97
  L 564.50 778.97
  Q 563.59 778.97 563.59 779.87
  L 563.59 783.28
  Q 563.59 783.50 563.81 783.50
  L 564.29 783.50
  A 0.32 0.31 82.8 0 1 564.59 783.74
  Z
  M 621.56 775.57
  Q 621.53 775.53 621.49 775.50
  Q 621.22 775.28 621.55 775.34
  Q 622.40 775.47 622.93 775.08
  Q 623.25 774.84 623.23 773.90
  Q 623.21 772.48 623.29 771.74
  A 0.67 0.67 0.0 0 0 622.62 771.00
  L 619.31 771.00
  Q 618.69 771.00 618.65 771.62
  L 617.78 785.78
  A 0.68 0.67 1.8 0 1 617.10 786.41
  L 612.51 786.41
  A 0.61 0.61 0.0 0 1 611.90 785.80
  L 611.90 771.69
  Q 611.90 770.99 611.20 770.99
  L 605.22 770.99
  Q 604.62 770.99 604.61 771.59
  Q 604.58 773.06 604.68 773.96
  Q 604.73 774.38 605.39 775.89
  Q 605.78 776.79 605.76 778.01
  Q 605.75 778.49 605.83 790.45
  Q 605.83 790.97 606.36 790.98
  Q 614.26 791.07 620.47 790.93
  Q 622.63 790.88 623.40 788.79
  Q 623.56 788.38 623.84 788.71
  Q 625.31 790.38 627.47 790.87
  Q 628.07 791.01 631.54 791.04
  C 634.06 791.06 636.85 791.43 637.86 788.94
  A 0.50 0.50 0.0 0 1 638.73 788.85
  Q 640.16 790.96 642.34 790.98
  Q 649.55 791.03 659.44 791.00
  Q 659.88 790.99 659.96 790.56
  Q 660.43 787.82 659.21 785.98
  Q 658.92 785.54 658.93 785.01
  Q 658.97 783.80 658.81 780.98
  C 658.60 777.11 655.69 775.93 652.24 775.96
  Q 648.53 776.00 645.64 776.51
  Q 645.41 776.55 645.41 776.78
  L 645.41 780.99
  A 0.21 0.20 -10.1 0 0 645.69 781.18
  Q 648.69 780.19 652.45 780.73
  Q 653.10 780.82 653.10 781.48
  L 653.10 785.91
  A 0.50 0.50 0.0 0 1 652.60 786.41
  L 639.23 786.41
  Q 638.59 786.41 638.59 785.77
  L 638.59 781.63
  Q 638.59 781.14 638.95 780.81
  L 639.21 780.56
  A 1.38 1.35 70.9 0 0 639.63 779.67
  L 639.79 776.98
  Q 639.85 775.97 638.84 775.97
  L 633.29 775.97
  Q 632.39 775.97 632.39 776.87
  L 632.39 785.75
  A 0.65 0.65 0.0 0 1 631.74 786.40
  L 624.75 786.40
  Q 624.16 786.40 624.07 785.81
  Q 623.62 782.68 624.79 780.03
  C 625.40 778.66 625.13 777.98 625.27 776.76
  Q 625.33 776.22 624.81 776.08
  Q 623.05 775.60 621.73 775.60
  Q 621.59 775.60 621.56 775.57
  Z
  M 362.5898 792.7382
  A 0.34 0.34 0.0 0 0 362.2480 792.4000
  L 358.4280 792.4200
  A 0.34 0.34 0.0 0 0 358.0898 792.7618
  L 358.1102 796.6618
  A 0.34 0.34 0.0 0 0 358.4520 797.0000
  L 362.2720 796.9800
  A 0.34 0.34 0.0 0 0 362.6102 796.6382
  L 362.5898 792.7382
  Z
  M 637.7033 792.7939
  A 0.39 0.39 0.0 0 0 637.3140 792.4033
  L 633.5740 792.3967
  A 0.39 0.39 0.0 0 0 633.1833 792.7861
  L 633.1767 796.5861
  A 0.39 0.39 0.0 0 0 633.5660 796.9767
  L 637.3060 796.9833
  A 0.39 0.39 0.0 0 0 637.6967 796.5939
  L 637.7033 792.7939
  Z
  M 654.5465 792.8279
  A 0.42 0.42 0.0 0 0 654.1280 792.4065
  L 650.4280 792.3936
  A 0.42 0.42 0.0 0 0 650.0066 792.8121
  L 649.9935 796.5721
  A 0.42 0.42 0.0 0 0 650.4120 796.9935
  L 654.1120 797.0064
  A 0.42 0.42 0.0 0 0 654.5334 796.5879
  L 654.5465 792.8279
  Z
  M 356.8234 792.7639
  A 0.35 0.35 0.0 0 0 356.4740 792.4133
  L 352.6540 792.4067
  A 0.35 0.35 0.0 0 0 352.3034 792.7561
  L 352.2966 796.6361
  A 0.35 0.35 0.0 0 0 352.6460 796.9867
  L 356.4660 796.9933
  A 0.35 0.35 0.0 0 0 356.8166 796.6439
  L 356.8234 792.7639
  Z
  M 374.2298 792.8521
  A 0.43 0.43 0.0 0 0 373.8020 792.4198
  L 370.0621 792.4002
  A 0.43 0.43 0.0 0 0 369.6298 792.8280
  L 369.6102 796.5679
  A 0.43 0.43 0.0 0 0 370.0380 797.0002
  L 373.7779 797.0198
  A 0.43 0.43 0.0 0 0 374.2102 796.5920
  L 374.2298 792.8521
  Z
  M 416.6132 798.8339
  A 0.43 0.43 0.0 0 0 416.1840 798.4031
  L 412.6040 798.3969
  A 0.43 0.43 0.0 0 0 412.1732 798.8261
  L 412.1668 802.5461
  A 0.43 0.43 0.0 0 0 412.5960 802.9769
  L 416.1760 802.9831
  A 0.43 0.43 0.0 0 0 416.6068 802.5539
  L 416.6132 798.8339
  Z
  M 422.4132 798.8539
  A 0.44 0.44 0.0 0 0 421.9740 798.4131
  L 418.3940 798.4069
  A 0.44 0.44 0.0 0 0 417.9532 798.8461
  L 417.9468 802.5661
  A 0.44 0.44 0.0 0 0 418.3860 803.0069
  L 421.9660 803.0131
  A 0.44 0.44 0.0 0 0 422.4068 802.5739
  L 422.4132 798.8539
  Z"
/>
<path fill="#ffffff" d="
  M 443.82 619.91
  Q 446.39 620.25 447.24 620.38
  Q 453.92 621.38 456.91 627.12
  C 460.34 633.70 456.10 640.98 449.43 642.90
  C 447.75 643.38 445.86 643.02 444.17 643.37
  Q 443.67 643.47 443.30 643.83
  Q 439.91 647.18 434.83 646.10
  Q 415.12 641.92 399.14 635.78
  Q 356.82 619.55 322.45 589.75
  Q 309.36 578.41 296.53 562.87
  Q 251.92 508.85 244.58 440.17
  C 243.68 431.73 243.86 421.58 243.91 412.96
  Q 243.95 406.53 244.32 402.06
  C 248.10 356.56 266.20 313.43 295.08 278.07
  Q 301.23 270.54 307.63 263.65
  Q 329.31 240.30 355.45 224.13
  Q 363.49 219.15 372.73 214.08
  Q 386.98 206.26 407.08 199.33
  Q 425.19 193.09 445.98 189.16
  Q 460.53 186.41 473.01 186.01
  Q 489.65 185.48 503.55 186.14
  Q 512.03 186.54 523.74 188.55
  Q 595.72 200.94 650.90 249.11
  Q 658.59 255.83 673.58 272.22
  Q 682.83 282.34 694.23 299.56
  Q 713.04 327.97 722.89 362.88
  Q 728.92 384.24 730.01 405.00
  Q 730.42 412.83 730.15 426.51
  Q 729.94 437.24 728.56 446.43
  Q 723.10 482.85 709.75 511.78
  Q 696.76 539.89 678.07 562.32
  Q 676.47 564.24 673.86 567.44
  Q 672.17 569.53 669.49 572.42
  Q 641.84 602.16 606.04 621.01
  Q 573.89 637.93 538.33 645.74
  Q 533.48 646.81 530.72 644.50
  Q 529.20 643.22 528.52 643.20
  C 527.20 643.16 526.09 643.29 525.21 643.06
  Q 519.22 641.54 516.48 636.31
  Q 514.49 632.51 515.98 628.57
  Q 517.52 624.50 521.40 622.09
  C 523.46 620.82 526.69 620.45 529.24 619.83
  Q 529.74 619.70 529.79 619.19
  C 529.97 617.55 529.56 615.70 530.32 614.02
  Q 531.54 611.32 534.17 610.63
  Q 545.57 607.60 553.70 604.92
  Q 586.25 594.19 613.58 573.81
  Q 619.68 569.26 625.28 564.71
  Q 631.38 559.74 636.32 554.85
  Q 650.35 540.92 661.77 524.28
  Q 672.40 508.80 679.30 491.55
  C 682.53 483.50 685.77 473.49 687.85 464.24
  Q 693.65 438.38 692.96 412.02
  C 692.37 389.75 687.31 369.04 679.03 347.86
  Q 669.62 323.76 651.18 301.38
  Q 638.69 286.24 627.17 276.19
  Q 585.94 240.27 532.91 227.65
  Q 523.59 225.43 513.11 224.04
  Q 464.30 217.55 416.39 234.35
  Q 396.65 241.28 379.85 251.34
  Q 322.17 285.88 294.93 346.94
  Q 293.15 350.93 290.11 360.44
  Q 287.56 368.44 286.15 374.19
  Q 274.56 421.70 287.03 468.86
  Q 289.97 479.98 293.09 487.96
  Q 307.90 525.85 338.12 555.41
  Q 351.15 568.15 364.16 577.16
  Q 371.23 582.07 380.75 587.76
  Q 406.99 603.44 437.06 610.43
  Q 440.74 611.28 442.88 614.13
  Q 443.21 614.56 443.21 615.11
  L 443.21 619.22
  Q 443.21 619.83 443.82 619.91
  Z"
/>
<path fill="#f8b810" d="
  M 486.25 239.07
  C 496.78 238.98 503.78 242.55 510.71 250.27
  C 519.34 259.90 520.04 274.17 514.31 285.16
  Q 508.23 296.82 495.98 300.24
  Q 492.32 301.27 486.54 301.32
  C 476.01 301.41 469.01 297.84 462.08 290.11
  C 453.45 280.49 452.75 266.22 458.48 255.23
  Q 464.56 243.57 476.81 240.14
  Q 480.47 239.12 486.25 239.07
  Z"
/>
<rect fill="#ffffff" x="-10.69" y="-10.67" transform="translate(420.11,272.80) rotate(-43.7)" width="21.38" height="21.34" rx="9.84"/>
<circle fill="#ffffff" cx="552.86" cy="272.81" r="10.82"/>
<circle fill="#ffffff" cx="383.06" cy="304.87" r="10.99"/>
<ellipse fill="#ffffff" cx="0.00" cy="0.00" transform="translate(590.32,304.94) rotate(-5.0)" rx="11.12" ry="10.95"/>
<circle fill="#ffffff" cx="427.27" cy="318.71" r="10.95"/>
<circle fill="#ffffff" cx="545.72" cy="318.67" r="10.95"/>
<path fill="#ffffff" d="
  M 449.42 377.31
  A 0.49 0.49 0.0 0 0 449.91 376.82
  Q 449.95 365.83 449.88 357.45
  Q 449.76 343.42 451.27 338.20
  C 454.52 326.94 462.17 318.06 472.93 313.84
  Q 479.94 311.09 486.29 310.95
  Q 495.41 310.76 503.53 315.26
  Q 517.49 323.02 521.88 337.93
  Q 523.19 342.35 523.18 351.17
  Q 523.16 366.75 523.13 375.88
  Q 523.11 380.01 525.95 377.00
  C 543.27 358.62 565.14 345.50 589.19 337.71
  Q 600.89 333.92 612.78 331.21
  Q 620.16 329.52 629.94 328.67
  Q 644.50 327.38 647.25 327.52
  C 658.36 328.09 667.13 336.39 667.09 347.75
  Q 667.03 364.61 667.08 473.50
  Q 667.08 479.67 665.98 483.00
  Q 663.00 491.96 654.58 495.17
  Q 652.41 496.00 646.95 496.20
  Q 638.95 496.49 630.98 499.41
  Q 587.55 515.31 556.91 546.44
  Q 538.77 564.86 524.62 588.45
  C 512.65 608.42 500.53 628.35 488.76 648.77
  Q 488.07 649.97 487.52 650.13
  A 2.11 2.07 -23.0 0 1 485.15 649.20
  Q 479.47 639.64 467.44 619.43
  Q 447.30 585.57 444.97 582.03
  Q 437.36 570.43 432.43 564.50
  Q 426.28 557.09 420.96 551.10
  Q 414.06 543.33 401.93 533.22
  Q 373.38 509.43 337.65 497.86
  Q 332.74 496.27 328.42 496.35
  Q 324.09 496.43 322.72 496.08
  Q 312.04 493.34 308.38 483.21
  Q 307.79 481.55 307.38 477.21
  Q 307.08 474.10 307.08 471.10
  Q 306.98 379.39 307.03 353.03
  C 307.04 349.89 307.51 346.67 307.85 343.70
  C 308.84 335.16 315.72 329.40 323.65 327.82
  Q 326.61 327.23 332.83 327.65
  Q 340.24 328.14 342.78 328.33
  C 356.82 329.34 370.64 332.81 384.43 337.75
  Q 395.09 341.56 402.98 345.25
  Q 422.96 354.59 439.08 368.54
  Q 443.11 372.02 447.04 376.34
  C 447.64 377.01 448.56 377.32 449.42 377.31
  Z
  M 487.16 330.03
  Q 480.35 329.88 475.80 333.75
  Q 471.16 337.70 469.90 343.82
  A 0.91 0.91 0.0 0 0 470.79 344.92
  L 503.25 344.92
  A 0.52 0.51 82.5 0 0 503.74 344.27
  Q 501.98 337.73 497.60 333.93
  Q 493.28 330.16 487.16 330.03
  Z
  M 429.77 416.74
  Q 436.60 422.66 443.80 430.82
  Q 443.97 431.02 446.03 433.71
  Q 447.07 435.07 448.27 436.18
  A 0.67 0.67 0.0 0 0 449.39 435.78
  Q 449.78 432.99 449.94 431.28
  Q 450.13 429.41 449.80 426.78
  Q 449.60 425.20 449.42 420.80
  Q 449.30 417.94 447.22 412.84
  Q 446.93 412.12 445.86 410.90
  Q 445.03 409.96 444.40 408.79
  Q 443.41 406.94 442.13 405.59
  Q 437.17 400.35 436.16 399.11
  Q 434.10 396.58 432.38 395.28
  Q 431.12 394.33 428.09 391.43
  Q 425.56 389.01 421.53 385.87
  Q 410.13 377.00 399.46 371.44
  Q 388.00 365.47 372.74 360.02
  Q 371.81 359.69 361.85 356.89
  Q 359.51 356.23 357.49 355.95
  Q 355.23 355.65 353.15 355.00
  Q 350.38 354.12 346.62 353.80
  Q 342.82 353.48 335.04 352.57
  A 2.35 2.35 0.0 0 0 332.42 354.90
  L 332.42 377.48
  A 1.62 1.62 0.0 0 0 333.99 379.10
  Q 339.39 379.30 346.51 379.39
  Q 349.02 379.43 351.59 380.49
  Q 352.72 380.96 353.75 381.04
  C 355.96 381.21 357.39 381.28 359.34 381.76
  Q 366.27 383.46 370.13 384.67
  Q 370.15 384.67 374.18 386.18
  Q 376.23 386.95 378.43 387.44
  Q 380.37 387.88 384.20 389.59
  Q 386.74 390.72 389.79 391.91
  Q 397.86 395.06 408.69 401.57
  Q 420.42 408.62 429.77 416.74
  Z
  M 614.35 356.58
  Q 610.12 357.57 605.79 358.70
  Q 601.75 359.76 597.43 361.45
  Q 588.82 364.83 580.19 368.19
  Q 575.03 370.20 559.83 379.83
  Q 552.28 384.62 545.58 390.58
  Q 540.70 394.93 536.65 398.65
  Q 533.09 401.91 526.85 410.50
  Q 524.73 413.42 524.28 415.40
  Q 523.75 417.68 523.71 421.00
  Q 523.64 426.54 523.65 435.85
  A 0.57 0.57 0.0 0 0 524.57 436.30
  Q 526.30 434.97 527.53 433.33
  Q 529.04 431.32 529.09 431.25
  Q 537.25 421.78 543.40 416.66
  Q 545.60 414.84 556.91 406.37
  C 557.95 405.59 559.25 405.08 560.54 404.27
  Q 586.77 387.65 617.24 381.25
  Q 618.37 381.01 620.67 381.00
  Q 622.85 380.88 624.94 379.66
  L 640.32 379.07
  A 2.27 2.27 0.0 0 0 642.49 377.06
  Q 642.78 374.39 642.23 372.10
  Q 642.51 363.89 642.34 355.79
  C 642.29 353.66 641.87 353.01 639.75 352.86
  Q 637.44 352.70 634.69 353.15
  Q 629.95 353.91 629.76 353.93
  Q 627.56 354.06 625.24 354.18
  C 623.95 354.24 622.70 354.79 621.45 355.17
  C 619.18 355.88 616.79 355.72 614.35 356.58
  Z
  M 503.41 364.38
  A 0.27 0.27 0.0 0 0 503.14 364.11
  L 470.34 364.11
  A 0.27 0.27 0.0 0 0 470.07 364.38
  L 470.07 379.42
  A 0.27 0.27 0.0 0 0 470.34 379.69
  L 503.14 379.69
  A 0.27 0.27 0.0 0 0 503.41 379.42
  L 503.41 364.38
  Z
  M 437.76 474.56
  Q 437.99 475.78 439.49 476.55
  L 448.46 488.47
  Q 450.12 490.68 450.19 487.91
  Q 450.29 484.03 450.20 479.63
  Q 450.10 474.89 449.15 471.42
  Q 447.11 463.94 442.20 457.64
  Q 442.27 456.18 440.83 455.74
  Q 427.52 438.72 413.17 428.32
  Q 403.08 421.02 399.75 418.98
  Q 377.82 405.54 352.94 399.84
  Q 348.96 398.93 346.74 398.71
  Q 342.96 398.34 340.49 397.85
  Q 338.91 397.54 334.45 397.45
  A 2.03 2.03 0.0 0 0 332.38 399.48
  L 332.38 420.88
  A 1.50 1.49 0.2 0 0 333.87 422.37
  C 335.10 422.37 336.44 422.31 337.80 422.59
  Q 340.60 423.18 343.44 423.33
  Q 345.34 423.44 345.82 423.64
  Q 346.98 424.14 348.21 423.88
  Q 349.49 423.61 351.70 424.29
  Q 354.81 425.26 356.26 425.45
  Q 358.55 425.76 360.66 426.90
  Q 361.51 427.35 365.75 428.50
  Q 368.84 429.33 370.76 430.19
  Q 374.56 431.88 378.31 433.30
  Q 378.90 433.52 379.89 434.09
  Q 380.66 434.53 381.57 434.63
  Q 382.56 434.74 384.01 435.51
  Q 391.56 439.49 393.56 440.35
  C 395.60 441.24 397.24 442.62 399.62 443.92
  Q 402.77 445.64 404.12 446.55
  Q 417.90 455.81 425.45 462.29
  Q 430.45 466.58 437.76 474.56
  Z
  M 583.64 413.18
  Q 581.46 414.42 578.73 415.51
  Q 575.29 416.89 563.51 425.27
  Q 543.81 439.26 529.53 458.77
  Q 528.93 459.59 525.50 465.71
  C 524.74 467.07 524.33 469.05 524.09 470.07
  C 523.40 472.97 523.74 475.77 523.23 478.34
  C 522.62 481.44 522.80 486.27 522.90 488.43
  Q 523.00 490.58 524.36 488.88
  Q 524.53 488.66 531.21 480.05
  Q 534.74 475.48 538.46 471.56
  Q 549.61 459.79 559.64 452.87
  Q 571.36 444.78 576.62 441.60
  Q 577.87 440.85 586.42 436.46
  Q 588.02 435.63 590.61 434.77
  Q 591.62 434.44 594.81 433.03
  Q 598.76 431.29 601.09 430.51
  Q 607.76 428.27 613.10 426.52
  Q 615.77 425.65 619.21 425.00
  Q 620.03 424.85 625.40 423.78
  Q 627.85 423.29 629.57 423.27
  Q 632.17 423.23 633.75 422.65
  Q 635.41 422.03 637.29 422.15
  Q 638.48 422.22 640.89 421.98
  A 1.65 1.64 87.5 0 0 642.38 420.35
  Q 642.42 410.65 642.29 400.76
  C 642.24 396.69 637.31 397.51 634.27 398.06
  Q 630.53 398.75 627.87 398.73
  C 625.27 398.71 623.73 399.20 621.59 399.84
  C 620.04 400.31 618.71 400.01 617.20 400.55
  Q 610.32 402.99 603.76 404.69
  Q 600.11 405.63 596.13 407.62
  Q 593.65 408.85 588.52 410.81
  Q 586.30 411.66 583.64 413.18
  Z
  M 470.28 559.83
  Q 473.16 561.84 478.11 560.54
  L 482.76 560.23
  Q 484.17 561.21 487.21 560.73
  L 493.18 560.43
  Q 497.39 561.53 501.62 560.39
  Q 503.05 560.19 503.05 559.01
  Q 503.16 493.51 503.13 401.16
  Q 503.13 398.77 500.74 398.77
  L 487.34 398.77
  Q 486.66 398.77 486.58 399.45
  Q 485.80 406.34 485.93 412.37
  Q 486.08 419.56 486.08 419.61
  Q 485.97 425.72 486.42 549.25
  Q 486.43 553.10 486.60 557.06
  Q 483.99 556.71 483.57 557.93
  Q 483.83 548.64 483.88 539.25
  Q 484.27 466.66 483.92 406.84
  Q 483.91 405.53 483.32 399.29
  Q 483.27 398.69 482.67 398.69
  L 471.80 398.69
  A 1.76 1.76 0.0 0 0 470.04 400.46
  L 470.28 559.83
  Z
  M 427.16 491.16
  Q 423.13 486.48 419.56 483.10
  Q 408.43 472.60 398.26 465.89
  Q 387.19 458.58 379.58 454.81
  Q 371.10 450.62 357.51 445.70
  C 355.29 444.90 353.87 444.78 351.79 444.01
  Q 350.37 443.48 347.52 442.97
  Q 342.85 442.15 338.07 440.89
  Q 337.66 440.78 334.93 440.94
  Q 333.55 441.03 332.99 441.75
  Q 332.49 442.41 332.45 444.05
  Q 332.38 447.52 332.33 466.55
  Q 332.33 469.84 335.58 470.05
  C 338.56 470.24 340.91 469.86 344.10 470.77
  Q 346.51 471.45 348.37 471.58
  Q 349.83 471.68 351.29 472.47
  Q 352.12 472.92 354.22 473.50
  Q 358.31 474.63 358.67 474.75
  Q 378.05 481.54 395.73 492.03
  Q 421.87 507.53 441.18 530.80
  Q 441.21 530.84 444.42 535.05
  Q 445.61 536.60 448.07 539.17
  A 0.55 0.55 0.0 0 0 449.01 538.89
  C 449.90 534.26 449.10 529.97 448.20 524.21
  Q 448.12 523.68 447.85 523.18
  Q 447.58 522.69 447.40 522.17
  Q 445.25 515.92 443.09 512.13
  Q 441.16 508.76 432.48 497.13
  C 430.98 495.11 428.77 493.02 427.16 491.16
  Z
  M 633.57 441.48
  Q 630.94 441.60 629.72 442.06
  C 627.67 442.83 626.06 442.70 623.88 443.33
  Q 618.80 444.80 609.97 447.80
  Q 607.42 448.66 606.12 449.35
  Q 604.43 450.24 602.23 450.83
  Q 599.58 451.53 596.47 453.08
  Q 578.63 461.95 563.20 474.45
  Q 547.91 486.85 535.49 503.50
  Q 530.78 509.83 527.87 515.36
  Q 525.27 520.31 524.70 523.75
  Q 523.49 531.05 523.73 538.99
  Q 523.78 540.58 525.00 539.57
  C 527.56 537.45 529.25 534.24 530.85 532.32
  Q 541.69 519.29 551.69 510.70
  Q 576.57 489.33 609.06 477.06
  Q 620.39 472.77 630.54 470.85
  Q 633.85 470.22 635.58 470.20
  Q 637.80 470.16 640.79 469.42
  Q 642.35 469.03 642.35 467.42
  L 642.35 442.79
  Q 642.35 442.34 642.00 442.06
  Q 639.82 440.33 637.17 440.92
  Q 635.03 441.41 633.57 441.48
  Z
  M 505.97 580.52
  A 0.85 0.85 0.0 0 0 505.22 579.25
  L 468.06 579.32
  A 0.85 0.85 0.0 0 0 467.31 580.58
  L 485.96 613.93
  A 0.85 0.85 0.0 0 0 487.44 613.93
  L 505.97 580.52
  Z"
/>
<path fill="#1e1d19" d="
  M 497.60 333.93
  Q 501.98 337.73 503.74 344.27
  A 0.52 0.51 82.5 0 1 503.25 344.92
  L 470.79 344.92
  A 0.91 0.91 0.0 0 1 469.90 343.82
  Q 471.16 337.70 475.80 333.75
  Q 480.35 329.88 487.16 330.03
  Q 493.28 330.16 497.60 333.93
  Z"
/>
<path fill="#f8b810" d="
  M 429.77 416.74
  Q 420.42 408.62 408.69 401.57
  Q 397.86 395.06 389.79 391.91
  Q 386.74 390.72 384.20 389.59
  Q 380.37 387.88 378.43 387.44
  Q 376.23 386.95 374.18 386.18
  Q 370.15 384.67 370.13 384.67
  Q 366.27 383.46 359.34 381.76
  C 357.39 381.28 355.96 381.21 353.75 381.04
  Q 352.72 380.96 351.59 380.49
  Q 349.02 379.43 346.51 379.39
  Q 339.39 379.30 333.99 379.10
  A 1.62 1.62 0.0 0 1 332.42 377.48
  L 332.42 354.90
  A 2.35 2.35 0.0 0 1 335.04 352.57
  Q 342.82 353.48 346.62 353.80
  Q 350.38 354.12 353.15 355.00
  Q 355.23 355.65 357.49 355.95
  Q 359.51 356.23 361.85 356.89
  Q 371.81 359.69 372.74 360.02
  Q 388.00 365.47 399.46 371.44
  Q 410.13 377.00 421.53 385.87
  Q 425.56 389.01 428.09 391.43
  Q 431.12 394.33 432.38 395.28
  Q 434.10 396.58 436.16 399.11
  Q 437.17 400.35 442.13 405.59
  Q 443.41 406.94 444.40 408.79
  Q 445.03 409.96 445.86 410.90
  Q 446.93 412.12 447.22 412.84
  Q 449.30 417.94 449.42 420.80
  Q 449.60 425.20 449.80 426.78
  Q 450.13 429.41 449.94 431.28
  Q 449.78 432.99 449.39 435.78
  A 0.67 0.67 0.0 0 1 448.27 436.18
  Q 447.07 435.07 446.03 433.71
  Q 443.97 431.02 443.80 430.82
  Q 436.60 422.66 429.77 416.74
  Z"
/>
<path fill="#1e1d19" d="
  M 642.23 372.10
  L 641.63 354.90
  A 1.37 1.35 90.0 0 0 640.33 353.59
  C 638.36 353.49 636.46 353.49 634.26 353.95
  Q 630.42 354.74 625.93 354.68
  C 623.55 354.64 620.66 356.12 617.96 356.36
  Q 616.20 356.52 614.35 356.58
  C 616.79 355.72 619.18 355.88 621.45 355.17
  C 622.70 354.79 623.95 354.24 625.24 354.18
  Q 627.56 354.06 629.76 353.93
  Q 629.95 353.91 634.69 353.15
  Q 637.44 352.70 639.75 352.86
  C 641.87 353.01 642.29 353.66 642.34 355.79
  Q 642.51 363.89 642.23 372.10
  Z"
/>
<path fill="#f8b810" d="
  M 642.23 372.10
  Q 642.78 374.39 642.49 377.06
  A 2.27 2.27 0.0 0 1 640.32 379.07
  L 624.94 379.66
  Q 622.42 379.72 620.67 381.00
  Q 618.37 381.01 617.24 381.25
  Q 586.77 387.65 560.54 404.27
  C 559.25 405.08 557.95 405.59 556.91 406.37
  Q 545.60 414.84 543.40 416.66
  Q 537.25 421.78 529.09 431.25
  Q 529.04 431.32 527.53 433.33
  Q 526.30 434.97 524.57 436.30
  A 0.57 0.57 0.0 0 1 523.65 435.85
  Q 523.64 426.54 523.71 421.00
  Q 523.75 417.68 524.28 415.40
  Q 524.73 413.42 526.85 410.50
  Q 533.09 401.91 536.65 398.65
  Q 540.70 394.93 545.58 390.58
  Q 552.28 384.62 559.83 379.83
  Q 575.03 370.20 580.19 368.19
  Q 588.82 364.83 597.43 361.45
  Q 601.75 359.76 605.79 358.70
  Q 610.12 357.57 614.35 356.58
  Q 616.20 356.52 617.96 356.36
  C 620.66 356.12 623.55 354.64 625.93 354.68
  Q 630.42 354.74 634.26 353.95
  C 636.46 353.49 638.36 353.49 640.33 353.59
  A 1.37 1.35 90.0 0 1 641.63 354.90
  L 642.23 372.10
  Z"
/>
<rect fill="#1e1d19" x="470.07" y="364.11" width="33.34" height="15.58" rx="0.27"/>
<path fill="#1e1d19" d="
  M 624.94 379.66
  Q 622.85 380.88 620.67 381.00
  Q 622.42 379.72 624.94 379.66
  Z"
/>
<path fill="#f8b810" d="
  M 440.83 455.74
  Q 440.96 456.72 442.20 457.64
  Q 447.11 463.94 449.15 471.42
  Q 450.10 474.89 450.20 479.63
  Q 450.29 484.03 450.19 487.91
  Q 450.12 490.68 448.46 488.47
  L 439.49 476.55
  Q 439.22 475.16 437.76 474.56
  Q 430.45 466.58 425.45 462.29
  Q 417.90 455.81 404.12 446.55
  Q 402.77 445.64 399.62 443.92
  C 397.24 442.62 395.60 441.24 393.56 440.35
  Q 391.56 439.49 384.01 435.51
  Q 382.56 434.74 381.57 434.63
  Q 380.66 434.53 379.89 434.09
  Q 378.90 433.52 378.31 433.30
  Q 374.56 431.88 370.76 430.19
  Q 368.84 429.33 365.75 428.50
  Q 361.51 427.35 360.66 426.90
  Q 358.55 425.76 356.26 425.45
  Q 354.81 425.26 351.70 424.29
  Q 349.49 423.61 348.21 423.88
  Q 346.98 424.14 345.82 423.64
  Q 345.34 423.44 343.44 423.33
  Q 340.60 423.18 337.80 422.59
  C 336.44 422.31 335.10 422.37 333.87 422.37
  A 1.50 1.49 0.2 0 1 332.38 420.88
  L 332.38 399.48
  A 2.03 2.03 0.0 0 1 334.45 397.45
  Q 338.91 397.54 340.49 397.85
  Q 342.96 398.34 346.74 398.71
  Q 348.96 398.93 352.94 399.84
  Q 377.82 405.54 399.75 418.98
  Q 403.08 421.02 413.17 428.32
  Q 427.52 438.72 440.83 455.74
  Z"
/>
<path fill="#f8b810" d="
  M 588.52 410.81
  Q 593.65 408.85 596.13 407.62
  Q 600.11 405.63 603.76 404.69
  Q 610.32 402.99 617.20 400.55
  C 618.71 400.01 620.04 400.31 621.59 399.84
  C 623.73 399.20 625.27 398.71 627.87 398.73
  Q 630.53 398.75 634.27 398.06
  C 637.31 397.51 642.24 396.69 642.29 400.76
  Q 642.42 410.65 642.38 420.35
  A 1.65 1.64 87.5 0 1 640.89 421.98
  Q 638.48 422.22 637.29 422.15
  Q 635.41 422.03 633.75 422.65
  Q 632.17 423.23 629.57 423.27
  Q 627.85 423.29 625.40 423.78
  Q 620.03 424.85 619.21 425.00
  Q 615.77 425.65 613.10 426.52
  Q 607.76 428.27 601.09 430.51
  Q 598.76 431.29 594.81 433.03
  Q 591.62 434.44 590.61 434.77
  Q 588.02 435.63 586.42 436.46
  Q 577.87 440.85 576.62 441.60
  Q 571.36 444.78 559.64 452.87
  Q 549.61 459.79 538.46 471.56
  Q 534.74 475.48 531.21 480.05
  Q 524.53 488.66 524.36 488.88
  Q 523.00 490.58 522.90 488.43
  C 522.80 486.27 522.62 481.44 523.23 478.34
  C 523.74 475.77 523.40 472.97 524.09 470.07
  C 524.33 469.05 524.74 467.07 525.50 465.71
  Q 528.93 459.59 529.53 458.77
  Q 543.81 439.26 563.51 425.27
  Q 575.29 416.89 578.73 415.51
  Q 581.46 414.42 583.64 413.18
  Q 586.30 411.66 588.52 410.81
  Z"
/>
<path fill="#f8b810" d="
  M 483.57 557.93
  L 482.76 560.23
  L 478.11 560.54
  L 470.28 559.83
  L 470.04 400.46
  A 1.76 1.76 0.0 0 1 471.80 398.69
  L 482.67 398.69
  Q 483.27 398.69 483.32 399.29
  Q 483.91 405.53 483.92 406.84
  Q 484.27 466.66 483.88 539.25
  Q 483.83 548.64 483.57 557.93
  Z"
/>
<path fill="#f8b810" d="
  M 501.62 560.39
  L 493.18 560.43
  L 487.21 560.73
  L 486.60 557.06
  Q 486.43 553.10 486.42 549.25
  Q 485.97 425.72 486.08 419.61
  Q 486.08 419.56 485.93 412.37
  Q 485.80 406.34 486.58 399.45
  Q 486.66 398.77 487.34 398.77
  L 500.74 398.77
  Q 503.13 398.77 503.13 401.16
  Q 503.16 493.51 503.05 559.01
  Q 503.05 560.19 501.62 560.39
  Z"
/>
<path fill="#f8b810" d="
  M 427.16 491.16
  C 428.77 493.02 430.98 495.11 432.48 497.13
  Q 441.16 508.76 443.09 512.13
  Q 445.25 515.92 447.40 522.17
  Q 447.58 522.69 447.85 523.18
  Q 448.12 523.68 448.20 524.21
  C 449.10 529.97 449.90 534.26 449.01 538.89
  A 0.55 0.55 0.0 0 1 448.07 539.17
  Q 445.61 536.60 444.42 535.05
  Q 441.21 530.84 441.18 530.80
  Q 421.87 507.53 395.73 492.03
  Q 378.05 481.54 358.67 474.75
  Q 358.31 474.63 354.22 473.50
  Q 352.12 472.92 351.29 472.47
  Q 349.83 471.68 348.37 471.58
  Q 346.51 471.45 344.10 470.77
  C 340.91 469.86 338.56 470.24 335.58 470.05
  Q 332.33 469.84 332.33 466.55
  Q 332.38 447.52 332.45 444.05
  Q 332.49 442.41 332.99 441.75
  Q 333.55 441.03 334.93 440.94
  Q 337.66 440.78 338.07 440.89
  Q 342.85 442.15 347.52 442.97
  Q 350.37 443.48 351.79 444.01
  C 353.87 444.78 355.29 444.90 357.51 445.70
  Q 371.10 450.62 379.58 454.81
  Q 387.19 458.58 398.26 465.89
  Q 408.43 472.60 419.56 483.10
  Q 423.13 486.48 427.16 491.16
  Z"
/>
<path fill="#f8b810" d="
  M 637.17 440.92
  Q 639.82 440.33 642.00 442.06
  Q 642.35 442.34 642.35 442.79
  L 642.35 467.42
  Q 642.35 469.03 640.79 469.42
  Q 637.80 470.16 635.58 470.20
  Q 633.85 470.22 630.54 470.85
  Q 620.39 472.77 609.06 477.06
  Q 576.57 489.33 551.69 510.70
  Q 541.69 519.29 530.85 532.32
  C 529.25 534.24 527.56 537.45 525.00 539.57
  Q 523.78 540.58 523.73 538.99
  Q 523.49 531.05 524.70 523.75
  Q 525.27 520.31 527.87 515.36
  Q 530.78 509.83 535.49 503.50
  Q 547.91 486.85 563.20 474.45
  Q 578.63 461.95 596.47 453.08
  Q 599.58 451.53 602.23 450.83
  Q 604.43 450.24 606.12 449.35
  Q 607.42 448.66 609.97 447.80
  Q 618.80 444.80 623.88 443.33
  C 626.06 442.70 627.67 442.83 629.72 442.06
  Q 630.94 441.60 633.57 441.48
  Q 635.03 441.41 637.17 440.92
  Z"
/>
<path fill="#1e1d19" d="
  M 442.20 457.64
  Q 440.96 456.72 440.83 455.74
  Q 442.27 456.18 442.20 457.64
  Z"
/>
<path fill="#1e1d19" d="
  M 439.49 476.55
  Q 437.99 475.78 437.76 474.56
  Q 439.22 475.16 439.49 476.55
  Z"
/>
<path fill="#1e1d19" d="
  M 486.60 557.06
  L 487.21 560.73
  Q 484.17 561.21 482.76 560.23
  L 483.57 557.93
  Q 483.99 556.71 486.60 557.06
  Z"
/>
<path fill="#1e1d19" d="
  M 478.11 560.54
  Q 473.16 561.84 470.28 559.83
  L 478.11 560.54
  Z"
/>
<path fill="#1e1d19" d="
  M 501.62 560.39
  Q 497.39 561.53 493.18 560.43
  L 501.62 560.39
  Z"
/>
<path fill="#1e1d19" d="
  M 505.97 580.52
  L 487.44 613.93
  A 0.85 0.85 0.0 0 1 485.96 613.93
  L 467.31 580.58
  A 0.85 0.85 0.0 0 1 468.06 579.32
  L 505.22 579.25
  A 0.85 0.85 0.0 0 1 505.97 580.52
  Z"
/>
<rect fill="#ffffff" x="-7.63" y="-7.63" transform="translate(372.94,664.50) rotate(-0.1)" width="15.26" height="15.26" rx="0.47"/>
<rect fill="#ffffff" x="385.70" y="656.90" width="15.20" height="15.20" rx="0.47"/>
<rect fill="#f8b810" x="-7.59" y="-7.59" transform="translate(583.71,664.50) rotate(0.1)" width="15.18" height="15.18" rx="0.51"/>
<path fill="#ffffff" d="
  M 642.03 730.00
  L 620.76 730.00
  A 0.35 0.35 0.0 0 1 620.41 729.65
  L 620.41 658.34
  A 0.35 0.35 0.0 0 1 620.76 657.99
  L 646.19 657.99
  A 0.35 0.35 0.0 0 1 646.54 658.34
  L 646.54 672.65
  A 0.35 0.35 0.0 0 1 646.19 673.00
  L 642.73 673.00
  A 0.35 0.35 0.0 0 0 642.38 673.35
  L 642.38 729.65
  A 0.35 0.35 0.0 0 1 642.03 730.00
  Z"
/>
<path fill="#ffffff" d="
  M 557.06 714.52
  Q 554.45 704.22 557.48 694.44
  Q 561.39 681.81 574.71 678.90
  C 583.32 677.02 594.11 677.59 601.54 682.67
  Q 607.47 686.73 609.93 693.31
  Q 611.74 698.12 611.66 710.00
  Q 611.59 719.86 611.58 729.66
  A 0.34 0.34 0.0 0 1 611.24 730.00
  L 411.31 730.00
  Q 410.83 730.00 410.80 730.48
  Q 410.61 733.94 409.50 737.51
  C 406.33 747.68 397.05 751.80 387.07 751.96
  Q 382.97 752.02 350.55 752.04
  Q 347.25 752.04 341.99 750.54
  C 336.31 748.91 331.69 745.26 329.35 739.63
  Q 327.03 734.03 327.07 728.22
  Q 327.11 721.44 327.08 720.52
  Q 327.06 719.99 326.54 719.99
  L 321.95 719.99
  Q 321.41 719.99 321.41 719.46
  L 321.41 705.53
  Q 321.41 704.99 321.95 704.99
  L 347.80 704.99
  Q 348.41 704.99 348.40 705.60
  Q 348.35 716.68 348.43 729.24
  Q 348.45 733.04 351.27 734.67
  C 352.30 735.26 353.75 735.43 355.01 735.77
  Q 355.84 735.98 356.57 735.99
  Q 365.71 736.02 381.02 735.99
  C 382.37 735.98 384.58 735.52 385.80 735.01
  Q 388.86 733.72 389.38 730.44
  A 0.41 0.41 0.0 0 0 388.96 729.97
  Q 383.30 730.20 377.74 729.82
  Q 366.93 729.06 359.86 720.66
  Q 356.57 716.75 355.69 711.89
  C 354.74 706.64 355.20 700.01 356.94 694.41
  C 360.20 683.91 368.57 678.90 379.28 678.11
  C 391.49 677.21 403.80 680.27 408.95 692.18
  Q 410.83 696.53 410.95 703.15
  Q 411.05 708.59 410.98 714.42
  A 0.57 0.57 0.0 0 0 411.55 714.99
  L 556.69 714.99
  Q 557.18 714.99 557.06 714.52
  Z
  M 381.43 714.61
  Q 384.43 715.28 387.93 714.94
  Q 388.42 714.89 388.42 714.39
  Q 388.45 709.05 388.42 701.46
  C 388.40 697.18 387.85 693.98 382.93 694.06
  Q 378.25 694.13 378.03 698.59
  Q 377.72 705.10 377.96 710.20
  Q 378.13 713.87 381.43 714.61
  Z
  M 582.11 714.65
  Q 585.11 715.32 588.62 714.96
  Q 589.11 714.91 589.11 714.41
  Q 589.12 709.06 589.06 701.46
  C 589.03 697.17 588.47 693.96 583.54 694.06
  Q 578.85 694.15 578.65 698.62
  Q 578.36 705.14 578.62 710.25
  Q 578.80 713.92 582.11 714.65
  Z"
/>
<path fill="#1e1d19" d="
  M 381.43 714.61
  Q 378.13 713.87 377.96 710.20
  Q 377.72 705.10 378.03 698.59
  Q 378.25 694.13 382.93 694.06
  C 387.85 693.98 388.40 697.18 388.42 701.46
  Q 388.45 709.05 388.42 714.39
  Q 388.42 714.89 387.93 714.94
  Q 384.43 715.28 381.43 714.61
  Z"
/>
<path fill="#1e1d19" d="
  M 582.11 714.65
  Q 578.80 713.92 578.62 710.25
  Q 578.36 705.14 578.65 698.62
  Q 578.85 694.15 583.54 694.06
  C 588.47 693.96 589.03 697.17 589.06 701.46
  Q 589.12 709.06 589.11 714.41
  Q 589.11 714.91 588.62 714.96
  Q 585.11 715.32 582.11 714.65
  Z"
/>
<path fill="#ffffff" d="
  M 1000.00 749.13
  L 1000.00 750.63
  Q 998.64 751.31 997.84 750.69
  Q 997.42 750.35 997.75 749.93
  Q 999.97 747.07 1000.00 749.13
  Z"
/>
<rect fill="#ffffff" x="-2.28" y="-2.28" transform="translate(332.28,773.29) rotate(0.1)" width="4.56" height="4.56" rx="0.49"/>
<rect fill="#ffffff" x="-2.30" y="-2.30" transform="translate(337.91,773.27) rotate(0.2)" width="4.60" height="4.60" rx="0.50"/>
<path fill="#ffffff" d="
  M 323.84 780.71
  Q 323.64 780.79 323.43 780.67
  Q 323.18 780.52 323.18 780.23
  L 323.18 776.92
  Q 323.18 775.97 324.13 775.97
  L 329.56 775.97
  Q 330.55 775.97 330.55 776.96
  L 330.55 785.87
  A 0.54 0.53 -0.0 0 0 331.09 786.40
  L 339.18 786.40
  A 0.42 0.42 0.0 0 0 339.60 785.98
  L 339.60 776.88
  Q 339.60 775.97 340.52 775.97
  L 346.60 775.97
  Q 347.56 775.97 347.50 776.93
  L 347.30 780.16
  Q 347.27 780.69 346.74 780.63
  Q 346.57 780.61 346.40 780.56
  Q 345.79 780.39 345.79 781.03
  L 345.79 785.10
  Q 345.79 786.43 347.13 786.43
  L 353.11 786.43
  Q 354.41 786.43 354.41 785.14
  L 354.41 776.82
  Q 354.41 775.97 355.26 775.97
  L 360.85 775.97
  Q 361.86 775.97 361.80 776.98
  L 361.61 779.96
  Q 361.59 780.34 361.26 780.51
  L 361.01 780.65
  Q 360.73 780.79 360.71 781.11
  L 360.45 785.20
  Q 360.38 786.42 361.61 786.42
  L 367.64 786.42
  Q 368.99 786.42 368.99 785.07
  L 368.99 776.50
  Q 368.99 775.99 369.50 775.99
  L 375.69 775.99
  Q 376.15 775.99 376.20 776.44
  Q 376.57 779.51 375.35 780.84
  Q 374.99 781.24 374.99 781.79
  L 374.99 785.20
  Q 374.99 786.45 376.24 786.45
  L 381.47 786.45
  Q 382.63 786.45 382.63 785.28
  L 382.63 771.67
  Q 382.63 771.00 383.31 771.00
  L 389.18 771.00
  Q 389.84 771.00 389.87 771.65
  Q 389.99 773.76 389.35 775.50
  Q 388.69 777.31 388.70 779.14
  Q 388.70 783.12 388.70 790.44
  Q 388.70 790.98 388.16 790.99
  Q 384.20 791.01 379.37 791.01
  C 377.51 791.01 375.88 790.13 374.90 788.62
  A 0.16 0.16 0.0 0 0 374.63 788.63
  Q 373.41 790.81 371.78 790.97
  Q 370.00 791.14 363.79 790.96
  Q 362.62 790.92 360.60 788.85
  Q 360.25 788.50 359.96 788.90
  Q 359.13 790.02 358.77 790.32
  Q 358.14 790.86 357.10 790.90
  Q 350.94 791.15 349.50 790.98
  Q 347.64 790.76 345.85 788.99
  Q 345.45 788.59 345.18 789.08
  C 344.48 790.33 343.44 790.98 342.04 790.99
  Q 337.62 791.03 327.55 790.98
  A 1.56 1.52 62.5 0 1 326.64 790.68
  C 323.43 788.35 324.36 784.76 324.36 781.07
  A 0.38 0.38 0.0 0 0 323.84 780.71
  Z"
/>
<path fill="#ffffff" d="
  M 399.11 777.35
  Q 398.71 784.12 398.99 790.44
  Q 399.02 790.99 398.47 790.99
  L 393.06 790.99
  Q 392.61 790.99 392.61 790.54
  L 392.61 772.12
  Q 392.61 770.97 393.76 770.97
  L 398.90 770.97
  Q 400.36 770.97 400.35 772.42
  Q 400.35 773.63 399.82 774.98
  Q 399.15 776.70 399.11 777.35
  Z"
/>
<path fill="#ffffff" d="
  M 450.80 775.31
  Q 449.51 775.19 448.33 775.50
  Q 447.39 775.76 447.39 774.78
  L 447.39 771.78
  Q 447.39 771.00 448.17 771.00
  L 451.31 771.00
  Q 451.85 771.00 451.85 771.53
  L 451.85 775.70
  A 0.49 0.49 0.0 0 0 452.21 776.17
  Q 457.42 777.60 457.55 783.02
  Q 457.66 787.58 457.58 790.45
  Q 457.56 791.00 457.02 791.00
  L 431.26 791.00
  Q 430.78 791.00 430.78 790.52
  L 430.78 781.05
  Q 430.78 780.59 430.32 780.59
  L 426.50 780.59
  A 0.69 0.69 0.0 0 0 425.81 781.28
  L 425.81 793.36
  A 4.22 4.21 -0.0 0 1 421.59 797.57
  L 409.02 797.57
  Q 408.46 797.57 408.46 797.02
  L 408.46 786.81
  Q 408.46 786.25 407.92 786.08
  L 407.63 785.99
  Q 407.18 785.85 407.18 785.38
  L 407.18 781.92
  Q 407.18 781.39 407.71 781.39
  L 414.12 781.39
  Q 414.70 781.39 414.70 781.97
  L 414.70 792.24
  Q 414.70 793.01 415.47 793.01
  L 418.70 793.01
  A 0.94 0.93 90.0 0 0 419.63 792.07
  L 419.63 780.08
  A 4.09 4.09 0.0 0 1 423.72 775.99
  L 436.08 775.99
  Q 436.90 775.99 436.90 776.81
  L 436.90 785.66
  Q 436.90 786.45 437.69 786.45
  L 441.03 786.45
  Q 442.10 786.45 441.85 785.41
  Q 441.69 784.71 441.88 782.44
  C 442.20 778.48 444.35 777.20 447.60 775.90
  Q 448.08 775.71 448.59 775.71
  L 450.78 775.71
  A 0.20 0.20 0.0 0 0 450.80 775.31
  Z
  M 451.1010 781.3276
  A 0.74 0.74 0.0 0 0 450.3546 780.5941
  L 448.9746 780.6061
  A 0.74 0.74 0.0 0 0 448.2411 781.3526
  L 448.2790 785.6924
  A 0.74 0.74 0.0 0 0 449.0254 786.4259
  L 450.4054 786.4139
  A 0.74 0.74 0.0 0 0 451.1389 785.6674
  L 451.1010 781.3276
  Z"
/>
<rect fill="#ffffff" x="-2.19" y="-2.31" transform="translate(480.61,773.31) rotate(-0.4)" width="4.38" height="4.62" rx="0.63"/>
<path fill="#ffffff" d="
  M 487.19 775.83
  Q 487.34 775.90 487.46 775.98
  Q 487.75 776.20 487.70 776.56
  L 486.54 785.00
  A 1.26 1.26 0.0 0 0 487.79 786.43
  L 493.55 786.43
  Q 495.01 786.43 495.01 784.96
  L 495.01 776.65
  Q 495.01 775.75 495.92 775.75
  L 501.28 775.75
  Q 502.23 775.75 502.23 776.70
  L 502.23 779.66
  Q 502.23 780.05 501.91 780.29
  L 501.39 780.67
  Q 500.99 780.96 500.99 781.45
  L 500.99 785.10
  Q 500.99 786.44 502.34 786.44
  L 508.17 786.44
  Q 509.41 786.44 509.41 785.20
  L 509.41 776.79
  Q 509.41 775.98 510.22 775.98
  L 515.76 775.98
  Q 516.68 775.98 516.68 776.90
  L 516.68 780.08
  A 0.46 0.46 0.0 0 1 516.36 780.52
  L 515.97 780.66
  Q 515.61 780.78 515.61 781.16
  L 515.61 785.75
  A 0.65 0.64 -90.0 0 0 516.25 786.40
  L 518.02 786.40
  Q 518.41 786.40 518.41 786.01
  L 518.41 776.74
  Q 518.41 775.98 519.17 775.98
  L 524.81 775.98
  Q 525.69 775.98 525.69 776.86
  L 525.69 779.86
  A 0.74 0.74 0.0 0 1 525.26 780.53
  L 524.94 780.68
  Q 524.61 780.83 524.61 781.20
  L 524.61 785.74
  Q 524.61 786.40 525.27 786.40
  L 527.02 786.40
  A 0.39 0.38 -0.0 0 0 527.41 786.02
  L 527.41 776.73
  Q 527.41 775.98 528.16 775.98
  L 534.03 775.98
  A 0.68 0.68 0.0 0 1 534.71 776.66
  L 534.71 780.01
  Q 534.71 780.37 534.38 780.49
  L 534.01 780.61
  Q 533.59 780.76 533.59 781.21
  L 533.59 786.25
  Q 533.59 786.41 533.75 786.41
  L 539.02 786.41
  Q 539.18 786.41 539.18 786.24
  L 539.18 771.75
  Q 539.18 770.98 539.96 770.98
  L 545.65 770.98
  Q 546.59 770.98 546.59 771.92
  L 546.59 774.76
  Q 546.59 775.40 545.96 775.40
  Q 545.76 775.40 545.58 775.53
  Q 545.24 775.79 545.24 776.22
  L 545.24 790.44
  Q 545.24 790.94 544.74 790.95
  Q 535.84 791.09 528.76 790.97
  C 526.84 790.94 525.78 790.37 524.75 788.90
  Q 524.35 788.33 523.97 788.91
  Q 521.68 792.36 517.52 790.37
  C 516.89 790.07 516.46 789.44 515.97 788.89
  Q 515.54 788.42 515.17 788.94
  Q 514.60 789.75 513.70 790.41
  Q 512.97 790.94 511.85 790.97
  Q 508.46 791.08 505.07 790.95
  Q 502.47 790.84 500.88 788.60
  A 0.20 0.20 0.0 0 0 500.54 788.63
  Q 499.60 790.73 497.99 790.87
  Q 496.23 791.01 491.75 791.05
  Q 488.28 791.09 486.59 788.85
  Q 486.25 788.41 485.97 788.89
  Q 484.72 790.92 483.38 790.94
  Q 474.37 791.05 474.30 791.05
  Q 473.78 791.06 473.72 791.56
  C 473.01 797.26 468.46 797.77 464.03 796.56
  Q 463.43 796.40 463.43 795.78
  L 463.43 792.93
  A 0.59 0.59 0.0 0 1 464.13 792.35
  Q 467.52 793.03 467.55 791.01
  Q 467.66 785.17 467.58 776.70
  Q 467.57 776.00 468.28 776.00
  L 474.11 776.00
  Q 474.93 776.00 474.82 776.81
  L 473.58 785.81
  Q 473.50 786.41 474.11 786.41
  L 479.97 786.41
  A 0.40 0.40 0.0 0 0 480.37 786.01
  L 480.37 776.77
  Q 480.37 776.24 480.77 775.93
  Q 481.66 775.22 483.23 775.89
  A 0.73 0.72 11.6 0 0 484.24 775.23
  L 484.24 771.50
  Q 484.24 771.00 484.74 771.00
  L 488.05 771.00
  Q 488.57 771.00 488.57 771.52
  L 488.57 775.12
  Q 488.57 775.87 487.85 775.70
  L 487.23 775.55
  Q 485.71 775.20 487.19 775.83
  Z"
/>
<rect fill="#ffffff" x="-2.31" y="-2.18" transform="translate(497.93,773.15) rotate(1.1)" width="4.62" height="4.36" rx="0.58"/>
<path fill="#ffffff" d="
  M 556.38 774.96
  Q 555.71 776.69 555.68 777.34
  Q 555.30 784.11 555.60 790.42
  Q 555.63 790.97 555.08 790.98
  L 549.67 791.00
  Q 549.22 791.00 549.22 790.55
  L 549.16 772.13
  Q 549.15 770.98 550.30 770.97
  L 555.44 770.96
  Q 556.90 770.95 556.90 772.40
  Q 556.90 773.61 556.38 774.96
  Z"
/>
<path fill="#ffffff" d="
  M 578.24 777.04
  L 580.35 777.04
  Q 580.87 777.04 580.87 777.56
  L 580.87 778.26
  Q 580.87 778.98 580.15 778.98
  L 573.52 778.98
  A 0.92 0.91 20.7 0 1 572.83 777.46
  Q 573.70 776.49 573.64 774.99
  Q 573.62 774.43 573.84 773.93
  Q 575.34 770.55 579.85 771.01
  Q 580.42 771.07 580.42 771.64
  L 580.42 773.54
  Q 580.42 773.99 579.97 773.99
  L 578.30 773.99
  Q 577.59 773.99 577.59 774.70
  L 577.59 776.38
  A 0.66 0.65 90.0 0 0 578.24 777.04
  Z"
/>
<path fill="#ffffff" d="
  M 564.29 783.50
  L 563.81 783.50
  Q 563.59 783.50 563.59 783.28
  L 563.59 779.87
  Q 563.59 778.97 564.50 778.97
  L 569.98 778.97
  Q 570.92 778.97 570.92 779.91
  L 570.92 785.48
  Q 570.92 786.41 571.85 786.41
  L 582.77 786.41
  Q 583.19 786.41 583.19 785.99
  L 583.19 771.75
  Q 583.19 770.98 583.95 770.98
  L 589.69 770.98
  Q 590.56 770.98 590.56 771.85
  L 590.56 774.69
  Q 590.56 775.13 590.17 775.33
  L 589.69 775.58
  Q 589.39 775.74 589.39 776.08
  L 589.39 786.11
  Q 589.39 786.41 589.69 786.41
  L 595.02 786.41
  Q 595.18 786.41 595.18 786.24
  L 595.18 772.00
  Q 595.18 770.98 596.20 770.98
  L 601.71 770.98
  Q 602.64 770.98 602.61 771.91
  L 602.51 775.01
  Q 602.50 775.43 602.08 775.43
  L 601.77 775.43
  Q 601.23 775.43 601.23 775.98
  L 601.23 790.46
  Q 601.23 790.98 600.72 790.98
  Q 592.16 791.04 569.27 790.98
  C 564.29 790.97 565.33 787.02 564.59 783.74
  A 0.32 0.31 82.8 0 0 564.29 783.50
  Z"
/>
<path fill="#ffffff" d="
  M 621.73 775.60
  Q 623.05 775.60 624.81 776.08
  Q 625.33 776.22 625.27 776.76
  C 625.13 777.98 625.40 778.66 624.79 780.03
  Q 623.62 782.68 624.07 785.81
  Q 624.16 786.40 624.75 786.40
  L 631.74 786.40
  A 0.65 0.65 0.0 0 0 632.39 785.75
  L 632.39 776.87
  Q 632.39 775.97 633.29 775.97
  L 638.84 775.97
  Q 639.85 775.97 639.79 776.98
  L 639.63 779.67
  A 1.38 1.35 70.9 0 1 639.21 780.56
  L 638.95 780.81
  Q 638.59 781.14 638.59 781.63
  L 638.59 785.77
  Q 638.59 786.41 639.23 786.41
  L 652.60 786.41
  A 0.50 0.50 0.0 0 0 653.10 785.91
  L 653.10 781.48
  Q 653.10 780.82 652.45 780.73
  Q 648.69 780.19 645.69 781.18
  A 0.21 0.20 -10.1 0 1 645.41 780.99
  L 645.41 776.78
  Q 645.41 776.55 645.64 776.51
  Q 648.53 776.00 652.24 775.96
  C 655.69 775.93 658.60 777.11 658.81 780.98
  Q 658.97 783.80 658.93 785.01
  Q 658.92 785.54 659.21 785.98
  Q 660.43 787.82 659.96 790.56
  Q 659.88 790.99 659.44 791.00
  Q 649.55 791.03 642.34 790.98
  Q 640.16 790.96 638.73 788.85
  A 0.50 0.50 0.0 0 0 637.86 788.94
  C 636.85 791.43 634.06 791.06 631.54 791.04
  Q 628.07 791.01 627.47 790.87
  Q 625.31 790.38 623.84 788.71
  Q 623.56 788.38 623.40 788.79
  Q 622.63 790.88 620.47 790.93
  Q 614.26 791.07 606.36 790.98
  Q 605.83 790.97 605.83 790.45
  Q 605.75 778.49 605.76 778.01
  Q 605.78 776.79 605.39 775.89
  Q 604.73 774.38 604.68 773.96
  Q 604.58 773.06 604.61 771.59
  Q 604.62 770.99 605.22 770.99
  L 611.20 770.99
  Q 611.90 770.99 611.90 771.69
  L 611.90 785.80
  A 0.61 0.61 0.0 0 0 612.51 786.41
  L 617.10 786.41
  A 0.68 0.67 1.8 0 0 617.78 785.78
  L 618.65 771.62
  Q 618.69 771.00 619.31 771.00
  L 622.62 771.00
  A 0.67 0.67 0.0 0 1 623.29 771.74
  Q 623.21 772.48 623.23 773.90
  Q 623.25 774.84 622.93 775.08
  Q 622.40 775.47 621.55 775.34
  Q 621.22 775.28 621.49 775.50
  Q 621.53 775.53 621.56 775.57
  Q 621.59 775.60 621.73 775.60
  Z"
/>
<rect fill="#1e1d19" x="-1.43" y="-2.91" transform="translate(449.69,783.51) rotate(-0.5)" width="2.86" height="5.82" rx="0.74"/>
<rect fill="#ffffff" x="-2.25" y="-2.29" transform="translate(360.35,794.70) rotate(-0.3)" width="4.50" height="4.58" rx="0.34"/>
<rect fill="#ffffff" x="-2.26" y="-2.29" transform="translate(635.44,794.69) rotate(0.1)" width="4.52" height="4.58" rx="0.39"/>
<rect fill="#ffffff" x="-2.27" y="-2.30" transform="translate(652.27,794.70) rotate(0.2)" width="4.54" height="4.60" rx="0.42"/>
<rect fill="#ffffff" x="-2.26" y="-2.29" transform="translate(354.56,794.70) rotate(0.1)" width="4.52" height="4.58" rx="0.35"/>
<rect fill="#ffffff" x="-2.30" y="-2.30" transform="translate(371.92,794.71) rotate(0.3)" width="4.60" height="4.60" rx="0.43"/>
<rect fill="#ffffff" x="-2.22" y="-2.29" transform="translate(414.39,800.69) rotate(0.1)" width="4.44" height="4.58" rx="0.43"/>
<rect fill="#ffffff" x="-2.23" y="-2.30" transform="translate(420.18,800.71) rotate(0.1)" width="4.46" height="4.60" rx="0.44"/>
</svg>
